SplineFontDB: 3.2
FontName: Altinn-DINExp
FullName: Altinn-DIN Exp
FamilyName: Altinn-DIN Exp
Weight: Book
Copyright: Copyright (c) 2019 Altinn. All rights reserved.
Version: 2.00
ItalicAngle: 0
UnderlinePosition: -153.6
UnderlineWidth: 51.2
Ascent: 782
Descent: 242
InvalidEm: 0
sfntRevision: 0x00010000
LayerCount: 2
Layer: 0 1 "Back" 1
Layer: 1 1 "Fore" 0
XUID: [1021 976 -1802971697 14507]
StyleMap: 0x0040
FSType: 4
OS2Version: 4
OS2_WeightWidthSlopeOnly: 1
OS2_UseTypoMetrics: 0
CreationTime: 1462909513
ModificationTime: 1574597120
PfmFamily: 33
TTFWeight: 400
TTFWidth: 7
LineGap: 0
VLineGap: 0
Panose: 2 11 5 4 2 2 2 3 2 4
OS2TypoAscent: 801
OS2TypoAOffset: 0
OS2TypoDescent: -248
OS2TypoDOffset: 0
OS2TypoLinegap: 0
OS2WinAscent: 924
OS2WinAOffset: 0
OS2WinDescent: 188
OS2WinDOffset: 0
HheadAscent: 924
HheadAOffset: 0
HheadDescent: -188
HheadDOffset: 0
OS2SubXSize: 666
OS2SubYSize: 614
OS2SubXOff: 0
OS2SubYOff: 77
OS2SupXSize: 666
OS2SupYSize: 614
OS2SupXOff: 0
OS2SupYOff: 358
OS2StrikeYSize: 51
OS2StrikeYPos: 314
OS2CapHeight: 707
OS2XHeight: 524
OS2Vendor: 'MONO'
OS2CodePages: 00000001.00000000
OS2UnicodeRanges: 8000006f.4000000a.00000000.00000000
Lookup: 1 0 0 "'rtla' Right to Left Alternates lookup 0" { "'rtla' Right to Left Alternates lookup 0 subtable"  } ['rtla' ('DFLT' <'dflt' > ) ]
Lookup: 1 0 0 "'sups' Superscript lookup 1" { "'sups' Superscript lookup 1 subtable" ("superior") } ['sups' ('DFLT' <'dflt' > ) ]
Lookup: 4 0 0 "'frac' Diagonal Fractions lookup 2" { "'frac' Diagonal Fractions lookup 2 subtable"  } ['frac' ('DFLT' <'dflt' > ) ]
Lookup: 258 0 0 "'kern' Horizontal Kerning in Latin lookup 0" { "'kern' Horizontal Kerning in Latin lookup 0 subtable"  } ['kern' ('DFLT' <'dflt' > 'latn' <'dflt' > ) ]
Lookup: 258 0 0 "Pairwise Positioning (kerning) lookup 1" { "Pairwise Positioning (kerning) lookup 1 subtable"  } []
Lookup: 258 0 0 "Pairwise Positioning (kerning) lookup 2" { "Pairwise Positioning (kerning) lookup 2 subtable"  } []

StartChar: .notdef
Encoding: 65536 -1 0
Width: 614
Flags: W
LayerCount: 2
Fore
SplineSet
103 707 m 1,0,-1
 510 707 l 1,1,-1
 510 0 l 1,2,-1
 103 0 l 1,3,-1
 103 707 l 1,0,-1
475 35 m 1,4,-1
 475 672 l 1,5,-1
 138 672 l 1,6,-1
 138 35 l 1,7,-1
 475 35 l 1,4,-1
EndSplineSet
Validated: 1
EndChar

StartChar: exclam
Encoding: 33 33 5
Width: 244
GlyphClass: 2
Flags: W
LayerCount: 2
Fore
SplineSet
71 707 m 1,0,-1
 174 707 l 1,1,-1
 157 211 l 1,2,-1
 89 211 l 1,3,-1
 71 707 l 1,0,-1
71 106 m 1,4,-1
 174 106 l 1,5,-1
 174 0 l 1,6,-1
 71 0 l 1,7,-1
 71 106 l 1,4,-1
EndSplineSet
Validated: 1
EndChar

StartChar: quotedbl
Encoding: 34 34 6
Width: 345
GlyphClass: 2
Flags: W
LayerCount: 2
Fore
SplineSet
49 707 m 1,0,-1
 132 707 l 1,1,-1
 132 450 l 1,2,-1
 49 450 l 1,3,-1
 49 707 l 1,0,-1
213 707 m 1,4,-1
 297 707 l 1,5,-1
 297 450 l 1,6,-1
 213 450 l 1,7,-1
 213 707 l 1,4,-1
EndSplineSet
Validated: 1
EndChar

StartChar: numbersign
Encoding: 35 35 7
Width: 598
GlyphClass: 2
Flags: W
LayerCount: 2
Fore
SplineSet
446 433 m 1,0,-1
 428 290 l 1,1,-1
 550 290 l 1,2,-1
 550 221 l 1,3,-1
 420 221 l 1,4,-1
 391 0 l 1,5,-1
 316 0 l 1,6,-1
 345 221 l 1,7,-1
 214 221 l 1,8,-1
 185 0 l 1,9,-1
 111 0 l 1,10,-1
 139 221 l 1,11,-1
 24 221 l 1,12,-1
 24 290 l 1,13,-1
 148 290 l 1,14,-1
 167 433 l 1,15,-1
 48 433 l 1,16,-1
 48 501 l 1,17,-1
 176 501 l 1,18,-1
 203 707 l 1,19,-1
 276 707 l 1,20,-1
 250 501 l 1,21,-1
 381 501 l 1,22,-1
 408 707 l 1,23,-1
 481 707 l 1,24,-1
 455 501 l 1,25,-1
 575 501 l 1,26,-1
 575 433 l 1,27,-1
 446 433 l 1,0,-1
373 433 m 1,28,-1
 242 433 l 1,29,-1
 223 290 l 1,30,-1
 354 290 l 1,31,-1
 373 433 l 1,28,-1
EndSplineSet
Validated: 1
EndChar

StartChar: dollar
Encoding: 36 36 8
Width: 531
GlyphClass: 2
Flags: W
LayerCount: 2
Fore
SplineSet
438 86 m 128,-1,1
 387 38 387 38 295 30 c 1,2,-1
 295 -60 l 1,3,-1
 226 -60 l 1,4,-1
 226 29 l 1,5,6
 135 36 135 36 86 84 c 128,-1,7
 37 132 37 132 32 219 c 1,8,-1
 117 219 l 1,9,10
 122 168 122 168 148 141.5 c 128,-1,11
 174 115 174 115 226 108 c 1,12,-1
 226 324 l 1,13,-1
 216 326 l 2,14,15
 131 341 131 341 88 381.5 c 128,-1,16
 45 422 45 422 45 496 c 0,17,18
 45 573 45 573 92.5 620.5 c 128,-1,19
 140 668 140 668 226 676 c 1,20,-1
 226 759 l 1,21,-1
 295 759 l 1,22,-1
 295 677 l 1,23,24
 378 670 378 670 425.5 624.5 c 128,-1,25
 473 579 473 579 478 497 c 1,26,-1
 393 497 l 1,27,28
 389 543 389 543 365 568 c 128,-1,29
 341 593 341 593 295 599 c 1,30,-1
 295 396 l 1,31,-1
 319 392 l 2,32,33
 403 377 403 377 446 334.5 c 128,-1,34
 489 292 489 292 489 216 c 0,35,0
 489 134 489 134 438 86 c 128,-1,1
155.5 441 m 128,-1,37
 178 419 178 419 226 409 c 1,38,-1
 226 599 l 1,39,40
 133 587 133 587 133 503 c 0,41,36
 133 463 133 463 155.5 441 c 128,-1,37
401 210 m 0,43,44
 401 255 401 255 376.5 277.5 c 128,-1,45
 352 300 352 300 295 311 c 1,46,-1
 295 106 l 1,47,42
 401 117 401 117 401 210 c 0,43,44
EndSplineSet
Validated: 1
EndChar

StartChar: percent
Encoding: 37 37 9
Width: 939
GlyphClass: 2
Flags: W
LayerCount: 2
Fore
SplineSet
79.5 314.5 m 128,-1,1
 43 357 43 357 43 440 c 2,2,-1
 43 551 l 2,3,4
 43 631 43 631 80.5 672.5 c 128,-1,5
 118 714 118 714 189 714 c 0,6,7
 335 714 335 714 336 551 c 2,8,-1
 336 440 l 2,9,10
 336 357 336 357 299 314.5 c 128,-1,11
 262 272 262 272 188 272 c 0,12,0
 116 272 116 272 79.5 314.5 c 128,-1,1
624 709 m 1,13,-1
 699 709 l 1,14,-1
 309 0 l 1,15,-1
 234 0 l 1,16,-1
 624 709 l 1,13,-1
240.5 365.5 m 128,-1,18
 256 390 256 390 256 445 c 2,19,-1
 256 543 l 2,20,21
 256 596 256 596 240.5 620.5 c 128,-1,22
 225 645 225 645 189 645 c 256,23,24
 153 645 153 645 137.5 620.5 c 128,-1,25
 122 596 122 596 122 543 c 2,26,-1
 122 445 l 2,27,28
 122 390 122 390 138 365.5 c 128,-1,29
 154 341 154 341 189 341 c 256,30,17
 225 341 225 341 240.5 365.5 c 128,-1,18
603 162 m 2,32,-1
 603 271 l 2,33,34
 603 352 603 352 640 393 c 128,-1,35
 677 434 677 434 750 434 c 0,36,37
 896 434 896 434 896 271 c 2,38,-1
 896 162 l 2,39,40
 896 -6 896 -6 749 -6 c 0,41,31
 603 -6 603 -6 603 162 c 2,32,-1
800.5 87 m 128,-1,43
 816 112 816 112 816 166 c 2,44,-1
 816 263 l 2,45,46
 816 317 816 317 800.5 341.5 c 128,-1,47
 785 366 785 366 750 366 c 256,48,49
 714 366 714 366 698 341.5 c 128,-1,50
 682 317 682 317 682 263 c 2,51,-1
 682 166 l 2,52,53
 682 112 682 112 698 87 c 128,-1,54
 714 62 714 62 750 62 c 256,55,42
 785 62 785 62 800.5 87 c 128,-1,43
EndSplineSet
Validated: 1
EndChar

StartChar: ampersand
Encoding: 38 38 10
Width: 678
GlyphClass: 2
Flags: W
LayerCount: 2
Fore
SplineSet
626 80 m 1,0,-1
 626 0 l 1,1,-1
 591 0 l 2,2,3
 553 0 553 0 528.5 12.5 c 128,-1,4
 504 25 504 25 475 57 c 2,5,-1
 456 81 l 1,6,7
 410 32 410 32 362 10.5 c 128,-1,8
 314 -11 314 -11 258 -11 c 0,9,10
 193 -11 193 -11 147 14 c 128,-1,11
 101 39 101 39 77 82 c 128,-1,12
 53 125 53 125 53 179 c 0,13,14
 53 240 53 240 88.5 292 c 128,-1,15
 124 344 124 344 199 392 c 1,16,17
 155 446 155 446 136 484.5 c 128,-1,18
 117 523 117 523 117 561 c 0,19,20
 117 606 117 606 138.5 641.5 c 128,-1,21
 160 677 160 677 199 697.5 c 128,-1,22
 238 718 238 718 287 718 c 0,23,24
 362 718 362 718 409 674 c 128,-1,25
 456 630 456 630 456 560 c 0,26,27
 456 507 456 507 425 466 c 128,-1,28
 394 425 394 425 325 379 c 2,29,-1
 319 376 l 1,30,-1
 462 205 l 1,31,-1
 554 312 l 1,32,-1
 612 261 l 1,33,-1
 512 144 l 1,34,-1
 537 115 l 2,35,36
 554 96 554 96 569 88 c 128,-1,37
 584 80 584 80 605 80 c 2,38,-1
 626 80 l 1,0,-1
226 622 m 128,-1,40
 203 599 203 599 203 562 c 0,41,42
 203 536 203 536 216 510.5 c 128,-1,43
 229 485 229 485 265 440 c 2,44,-1
 270 434 l 1,45,-1
 276 438 l 2,46,47
 328 472 328 472 349.5 499 c 128,-1,48
 371 526 371 526 371 561 c 0,49,50
 371 599 371 599 348 622 c 128,-1,51
 325 645 325 645 287 645 c 256,52,39
 249 645 249 645 226 622 c 128,-1,40
336.5 84.5 m 128,-1,54
 370 101 370 101 407 140 c 1,55,-1
 247 333 l 1,56,57
 193 297 193 297 166 260.5 c 128,-1,58
 139 224 139 224 139 182 c 0,59,60
 139 132 139 132 172 100 c 128,-1,61
 205 68 205 68 264 68 c 0,62,53
 303 68 303 68 336.5 84.5 c 128,-1,54
EndSplineSet
Validated: 1
EndChar

StartChar: quotesingle
Encoding: 39 39 11
Width: 181
GlyphClass: 2
Flags: W
LayerCount: 2
Fore
SplineSet
49 707 m 1,0,-1
 132 707 l 1,1,-1
 132 450 l 1,2,-1
 49 450 l 1,3,-1
 49 707 l 1,0,-1
EndSplineSet
Validated: 1
EndChar

StartChar: parenleft
Encoding: 40 40 12
Width: 320
GlyphClass: 2
Flags: W
LayerCount: 2
Fore
SplineSet
88.5 114.5 m 128,-1,1
 53 221 53 221 53 336 c 0,2,3
 53 452 53 452 89 559 c 128,-1,4
 125 666 125 666 195 758 c 1,5,-1
 267 758 l 1,6,7
 207 668 207 668 173.5 557.5 c 128,-1,8
 140 447 140 447 140 336 c 0,9,10
 140 223 140 223 173.5 113 c 128,-1,11
 207 3 207 3 267 -86 c 1,12,-1
 194 -86 l 1,13,0
 124 8 124 8 88.5 114.5 c 128,-1,1
EndSplineSet
Validated: 1
Substitution2: "'rtla' Right to Left Alternates lookup 0 subtable" parenright
EndChar

StartChar: parenright
Encoding: 41 41 13
Width: 320
GlyphClass: 2
Flags: W
LayerCount: 2
Fore
SplineSet
147 113 m 128,-1,1
 180 223 180 223 180 336 c 0,2,3
 180 448 180 448 147 558 c 128,-1,4
 114 668 114 668 53 758 c 1,5,-1
 126 758 l 1,6,7
 196 666 196 666 231.5 559 c 128,-1,8
 267 452 267 452 267 336 c 0,9,10
 267 221 267 221 232 114.5 c 128,-1,11
 197 8 197 8 127 -86 c 1,12,-1
 53 -86 l 1,13,0
 114 3 114 3 147 113 c 128,-1,1
EndSplineSet
Validated: 1
Substitution2: "'rtla' Right to Left Alternates lookup 0 subtable" parenleft
EndChar

StartChar: asterisk
Encoding: 42 42 14
Width: 420
GlyphClass: 2
Flags: W
LayerCount: 2
Fore
SplineSet
183 522 m 1,0,-1
 77 468 l 1,1,-1
 53 514 l 1,2,-1
 158 564 l 1,3,-1
 53 614 l 1,4,-1
 77 660 l 1,5,-1
 183 607 l 1,6,-1
 183 707 l 1,7,-1
 238 707 l 1,8,-1
 238 606 l 1,9,-1
 344 660 l 1,10,-1
 367 614 l 1,11,-1
 263 565 l 1,12,-1
 368 514 l 1,13,-1
 344 468 l 1,14,-1
 238 522 l 1,15,-1
 238 417 l 1,16,-1
 183 417 l 1,17,-1
 183 522 l 1,0,-1
EndSplineSet
Validated: 1
EndChar

StartChar: plus
Encoding: 43 43 15
Width: 521
GlyphClass: 2
Flags: W
LayerCount: 2
Fore
SplineSet
219 242 m 1,0,-1
 54 242 l 1,1,-1
 54 324 l 1,2,-1
 219 324 l 1,3,-1
 219 489 l 1,4,-1
 302 489 l 1,5,-1
 302 324 l 1,6,-1
 467 324 l 1,7,-1
 467 242 l 1,8,-1
 302 242 l 1,9,-1
 302 76 l 1,10,-1
 219 76 l 1,11,-1
 219 242 l 1,0,-1
EndSplineSet
Validated: 1
EndChar

StartChar: comma
Encoding: 44 44 16
Width: 181
GlyphClass: 2
Flags: W
LayerCount: 2
Fore
SplineSet
49 110 m 1,0,-1
 132 110 l 1,1,-1
 132 -74 l 1,2,-1
 49 -148 l 1,3,-1
 49 110 l 1,0,-1
EndSplineSet
Validated: 1
EndChar

StartChar: hyphen
Encoding: 45 45 17
Width: 432
GlyphClass: 2
Flags: W
LayerCount: 2
Fore
SplineSet
53 396 m 1,0,-1
 379 396 l 1,1,-1
 379 313 l 1,2,-1
 53 313 l 1,3,-1
 53 396 l 1,0,-1
EndSplineSet
Validated: 1
EndChar

StartChar: period
Encoding: 46 46 18
Width: 202
GlyphClass: 2
Flags: W
LayerCount: 2
Fore
SplineSet
49 110 m 1,0,-1
 154 110 l 1,1,-1
 154 0 l 1,2,-1
 49 0 l 1,3,-1
 49 110 l 1,0,-1
EndSplineSet
Validated: 1
EndChar

StartChar: slash
Encoding: 47 47 19
Width: 438
GlyphClass: 2
Flags: W
LayerCount: 2
Fore
SplineSet
310 709 m 1,0,-1
 385 709 l 1,1,-1
 128 -10 l 1,2,-1
 53 -10 l 1,3,-1
 310 709 l 1,0,-1
EndSplineSet
Validated: 1
EndChar

StartChar: zero
Encoding: 48 48 20
Width: 562
GlyphClass: 2
Flags: W
LayerCount: 2
Fore
SplineSet
117.5 55 m 128,-1,1
 62 120 62 120 62 248 c 2,2,-1
 62 464 l 2,3,4
 62 589 62 589 117.5 653 c 128,-1,5
 173 717 173 717 282 717 c 256,6,7
 391 717 391 717 446.5 653 c 128,-1,8
 502 589 502 589 502 464 c 2,9,-1
 502 248 l 2,10,11
 502 120 502 120 446 55 c 128,-1,12
 390 -10 390 -10 282 -10 c 256,13,0
 173 -10 173 -10 117.5 55 c 128,-1,1
379 116.5 m 128,-1,15
 409 160 409 160 409 255 c 2,16,-1
 409 452 l 2,17,18
 409 547 409 547 378.5 590.5 c 128,-1,19
 348 634 348 634 282 634 c 0,20,21
 216 634 216 634 186 590.5 c 128,-1,22
 156 547 156 547 156 452 c 2,23,-1
 156 255 l 2,24,25
 156 160 156 160 186 116.5 c 128,-1,26
 216 73 216 73 282 73 c 0,27,14
 349 73 349 73 379 116.5 c 128,-1,15
EndSplineSet
Validated: 1
EndChar

StartChar: one
Encoding: 49 49 21
Width: 370
GlyphClass: 2
Flags: W
LayerCount: 2
Fore
SplineSet
197 605 m 1,0,-1
 46 511 l 1,1,-1
 46 610 l 1,2,-1
 197 707 l 1,3,-1
 290 707 l 1,4,-1
 290 0 l 1,5,-1
 197 0 l 1,6,-1
 197 605 l 1,0,-1
EndSplineSet
Validated: 1
Substitution2: "'sups' Superscript lookup 1 subtable" uni00B9
EndChar

StartChar: two
Encoding: 50 50 22
Width: 542
GlyphClass: 2
Flags: W
LayerCount: 2
Fore
SplineSet
57 75 m 1,0,-1
 318 371 l 2,1,2
 358 414 358 414 374 446 c 128,-1,3
 390 478 390 478 390 515 c 2,4,-1
 390 527 l 2,5,6
 390 578 390 578 357.5 607 c 128,-1,7
 325 636 325 636 266 636 c 0,8,9
 209 636 209 636 177.5 607.5 c 128,-1,10
 146 579 146 579 146 523 c 2,11,-1
 146 512 l 1,12,-1
 56 512 l 1,13,-1
 56 530 l 2,14,15
 56 616 56 616 113.5 666.5 c 128,-1,16
 171 717 171 717 268 717 c 0,17,18
 334 717 334 717 382.5 693.5 c 128,-1,19
 431 670 431 670 457 627.5 c 128,-1,20
 483 585 483 585 483 529 c 2,21,-1
 483 514 l 2,22,23
 483 462 483 462 461.5 418 c 128,-1,24
 440 374 440 374 390 321 c 2,25,-1
 180 82 l 1,26,-1
 489 82 l 1,27,-1
 489 0 l 1,28,-1
 57 0 l 1,29,-1
 57 75 l 1,0,-1
EndSplineSet
Validated: 1
Substitution2: "'sups' Superscript lookup 1 subtable" uni00B2
EndChar

StartChar: three
Encoding: 51 51 23
Width: 562
GlyphClass: 2
Flags: W
LayerCount: 2
Fore
SplineSet
115 37.5 m 128,-1,1
 57 85 57 85 57 171 c 2,2,-1
 57 181 l 1,3,-1
 147 181 l 1,4,-1
 147 172 l 2,5,6
 147 123 147 123 180.5 97 c 128,-1,7
 214 71 214 71 278 71 c 256,8,9
 341 71 341 71 375 101.5 c 128,-1,10
 409 132 409 132 409 188 c 2,11,-1
 409 208 l 2,12,13
 409 265 409 265 373.5 295 c 128,-1,14
 338 325 338 325 269 325 c 2,15,-1
 227 325 l 1,16,-1
 227 407 l 1,17,-1
 268 407 l 2,18,19
 330 407 330 407 363 435.5 c 128,-1,20
 396 464 396 464 396 516 c 2,21,-1
 396 530 l 2,22,23
 396 581 396 581 365 608.5 c 128,-1,24
 334 636 334 636 274 636 c 256,25,26
 215 636 215 636 184.5 609.5 c 128,-1,27
 154 583 154 583 154 532 c 2,28,-1
 154 522 l 1,29,-1
 66 522 l 1,30,-1
 66 534 l 2,31,32
 66 620 66 620 121.5 668.5 c 128,-1,33
 177 717 177 717 278 717 c 0,34,35
 377 717 377 717 432.5 669.5 c 128,-1,36
 488 622 488 622 488 537 c 2,37,-1
 488 521 l 2,38,39
 488 468 488 468 461 430.5 c 128,-1,40
 434 393 434 393 387 374 c 1,41,42
 443 356 443 356 472.5 312.5 c 128,-1,43
 502 269 502 269 502 207 c 2,44,-1
 502 188 l 2,45,46
 502 96 502 96 441.5 43 c 128,-1,47
 381 -10 381 -10 276 -10 c 0,48,0
 173 -10 173 -10 115 37.5 c 128,-1,1
EndSplineSet
Validated: 1
Substitution2: "'sups' Superscript lookup 1 subtable" uni00B3
EndChar

StartChar: four
Encoding: 52 52 24
Width: 577
GlyphClass: 2
Flags: W
LayerCount: 2
Fore
SplineSet
535 131 m 1,0,-1
 450 131 l 1,1,-1
 450 0 l 1,2,-1
 356 0 l 1,3,-1
 356 131 l 1,4,-1
 44 131 l 1,5,-1
 44 214 l 1,6,-1
 285 707 l 1,7,-1
 380 707 l 1,8,-1
 139 214 l 1,9,-1
 356 214 l 1,10,-1
 356 397 l 1,11,-1
 450 397 l 1,12,-1
 450 214 l 1,13,-1
 535 214 l 1,14,-1
 535 131 l 1,0,-1
EndSplineSet
Validated: 1
EndChar

StartChar: five
Encoding: 53 53 25
Width: 548
GlyphClass: 2
Flags: W
LayerCount: 2
Fore
SplineSet
116.5 40 m 128,-1,1
 62 90 62 90 62 169 c 2,2,-1
 62 177 l 1,3,-1
 152 177 l 1,4,-1
 152 172 l 2,5,6
 152 129 152 129 182.5 100.5 c 128,-1,7
 213 72 213 72 272 72 c 0,8,9
 396 72 396 72 396 210 c 2,10,-1
 396 246 l 2,11,12
 396 315 396 315 365.5 350 c 128,-1,13
 335 385 335 385 275 385 c 0,14,15
 235 385 235 385 206.5 367 c 128,-1,16
 178 349 178 349 164 315 c 1,17,-1
 74 315 l 1,18,-1
 74 707 l 1,19,-1
 469 707 l 1,20,-1
 469 624 l 1,21,-1
 157 624 l 1,22,-1
 157 415 l 1,23,24
 181 439 181 439 216.5 452.5 c 128,-1,25
 252 466 252 466 292 466 c 0,26,27
 385 466 385 466 436.5 409.5 c 128,-1,28
 488 353 488 353 488 250 c 2,29,-1
 488 206 l 2,30,31
 488 104 488 104 431 47 c 128,-1,32
 374 -10 374 -10 270 -10 c 0,33,0
 171 -10 171 -10 116.5 40 c 128,-1,1
EndSplineSet
Validated: 1
EndChar

StartChar: six
Encoding: 54 54 26
Width: 565
GlyphClass: 2
Flags: W
LayerCount: 2
Fore
SplineSet
117.5 46 m 128,-1,1
 56 102 56 102 56 197 c 2,2,-1
 56 219 l 2,3,4
 56 269 56 269 72 314 c 128,-1,5
 88 359 88 359 126 418 c 2,6,-1
 299 707 l 1,7,-1
 400 707 l 1,8,-1
 220 410 l 1,9,10
 234 418 234 418 257.5 423 c 128,-1,11
 281 428 281 428 308 428 c 0,12,13
 366 428 366 428 412.5 402 c 128,-1,14
 459 376 459 376 485 330 c 128,-1,15
 511 284 511 284 511 225 c 2,16,-1
 511 201 l 2,17,18
 511 104 511 104 449 47 c 128,-1,19
 387 -10 387 -10 284 -10 c 0,20,0
 179 -10 179 -10 117.5 46 c 128,-1,1
382.5 105 m 128,-1,22
 419 139 419 139 419 198 c 2,23,-1
 419 221 l 2,24,25
 419 278 419 278 382.5 312 c 128,-1,26
 346 346 346 346 283 346 c 0,27,28
 221 346 221 346 185.5 313 c 128,-1,29
 150 280 150 280 150 220 c 2,30,-1
 150 197 l 2,31,32
 150 139 150 139 186 105 c 128,-1,33
 222 71 222 71 284 71 c 0,34,21
 346 71 346 71 382.5 105 c 128,-1,22
EndSplineSet
Validated: 1
EndChar

StartChar: seven
Encoding: 55 55 27
Width: 500
GlyphClass: 2
Flags: W
LayerCount: 2
Fore
SplineSet
465 707 m 1,0,-1
 465 624 l 1,1,-1
 197 0 l 1,2,-1
 102 0 l 1,3,-1
 372 624 l 1,4,-1
 38 624 l 1,5,-1
 38 707 l 1,6,-1
 465 707 l 1,0,-1
EndSplineSet
Validated: 1
EndChar

StartChar: eight
Encoding: 56 56 28
Width: 581
GlyphClass: 2
Flags: W
LayerCount: 2
Fore
SplineSet
124.5 44 m 128,-1,1
 62 98 62 98 62 190 c 2,2,-1
 62 206 l 2,3,4
 62 264 62 264 90 306.5 c 128,-1,5
 118 349 118 349 171 372 c 1,6,7
 127 391 127 391 102.5 430 c 128,-1,8
 78 469 78 469 78 519 c 2,9,-1
 78 532 l 2,10,11
 78 586 78 586 104.5 628.5 c 128,-1,12
 131 671 131 671 179 694 c 128,-1,13
 227 717 227 717 292 717 c 256,14,15
 357 717 357 717 405.5 694 c 128,-1,16
 454 671 454 671 480.5 629 c 128,-1,17
 507 587 507 587 507 532 c 2,18,-1
 507 519 l 2,19,20
 507 469 507 469 482 430 c 128,-1,21
 457 391 457 391 414 372 c 1,22,23
 466 349 466 349 493.5 306 c 128,-1,24
 521 263 521 263 521 207 c 2,25,-1
 521 191 l 2,26,27
 521 99 521 99 458 44.5 c 128,-1,28
 395 -10 395 -10 292 -10 c 0,29,0
 187 -10 187 -10 124.5 44 c 128,-1,1
382.5 439.5 m 128,-1,31
 415 468 415 468 415 517 c 2,32,-1
 415 532 l 2,33,34
 415 580 415 580 382 608 c 128,-1,35
 349 636 349 636 292 636 c 0,36,37
 236 636 236 636 203 608.5 c 128,-1,38
 170 581 170 581 170 532 c 2,39,-1
 170 517 l 2,40,41
 170 468 170 468 202 439.5 c 128,-1,42
 234 411 234 411 292 411 c 0,43,30
 350 411 350 411 382.5 439.5 c 128,-1,31
392.5 103 m 128,-1,45
 429 135 429 135 429 193 c 2,46,-1
 429 209 l 2,47,48
 429 265 429 265 392.5 297.5 c 128,-1,49
 356 330 356 330 292 330 c 256,50,51
 227 330 227 330 191 297.5 c 128,-1,52
 155 265 155 265 155 209 c 2,53,-1
 155 193 l 2,54,55
 155 136 155 136 191 103.5 c 128,-1,56
 227 71 227 71 292 71 c 256,57,44
 356 71 356 71 392.5 103 c 128,-1,45
EndSplineSet
Validated: 1
EndChar

StartChar: nine
Encoding: 57 57 29
Width: 565
GlyphClass: 2
Flags: W
LayerCount: 2
Fore
SplineSet
348 297 m 1,0,1
 315 279 315 279 259 279 c 0,2,3
 201 279 201 279 155 305 c 128,-1,4
 109 331 109 331 82.5 377 c 128,-1,5
 56 423 56 423 56 481 c 2,6,-1
 56 506 l 2,7,8
 56 603 56 603 118 660 c 128,-1,9
 180 717 180 717 284 717 c 0,10,11
 388 717 388 717 449.5 660.5 c 128,-1,12
 511 604 511 604 511 510 c 2,13,-1
 511 487 l 2,14,15
 511 437 511 437 495 392 c 128,-1,16
 479 347 479 347 442 289 c 2,17,-1
 268 0 l 1,18,-1
 168 0 l 1,19,-1
 348 297 l 1,0,1
383 393.5 m 128,-1,21
 419 427 419 427 419 486 c 2,22,-1
 419 510 l 2,23,24
 419 568 419 568 382.5 602 c 128,-1,25
 346 636 346 636 284 636 c 256,26,27
 222 636 222 636 185 601.5 c 128,-1,28
 148 567 148 567 148 509 c 2,29,-1
 148 485 l 2,30,31
 148 428 148 428 185 394 c 128,-1,32
 222 360 222 360 285 360 c 256,33,20
 347 360 347 360 383 393.5 c 128,-1,21
EndSplineSet
Validated: 1
EndChar

StartChar: colon
Encoding: 58 58 30
Width: 202
GlyphClass: 2
Flags: W
LayerCount: 2
Fore
SplineSet
49 406 m 1,0,-1
 154 406 l 1,1,-1
 154 296 l 1,2,-1
 49 296 l 1,3,-1
 49 406 l 1,0,-1
49 160 m 1,4,-1
 154 160 l 1,5,-1
 154 50 l 1,6,-1
 49 50 l 1,7,-1
 49 160 l 1,4,-1
EndSplineSet
Validated: 1
EndChar

StartChar: semicolon
Encoding: 59 59 31
Width: 202
GlyphClass: 2
Flags: W
LayerCount: 2
Fore
SplineSet
49 456 m 1,0,-1
 154 456 l 1,1,-1
 154 346 l 1,2,-1
 49 346 l 1,3,-1
 49 456 l 1,0,-1
70 110 m 1,4,-1
 154 110 l 1,5,-1
 154 -74 l 1,6,-1
 70 -148 l 1,7,-1
 70 110 l 1,4,-1
EndSplineSet
Validated: 1
EndChar

StartChar: less
Encoding: 60 60 32
Width: 521
GlyphClass: 2
Flags: W
LayerCount: 2
Fore
SplineSet
54 246 m 1,0,-1
 54 319 l 1,1,-1
 466 485 l 1,2,-1
 466 399 l 1,3,-1
 167 283 l 1,4,-1
 466 165 l 1,5,-1
 466 79 l 1,6,-1
 54 246 l 1,0,-1
EndSplineSet
Validated: 1
Substitution2: "'rtla' Right to Left Alternates lookup 0 subtable" greater
EndChar

StartChar: equal
Encoding: 61 61 33
Width: 521
GlyphClass: 2
Flags: W
LayerCount: 2
Fore
SplineSet
54 410 m 1,0,-1
 466 410 l 1,1,-1
 466 327 l 1,2,-1
 54 327 l 1,3,-1
 54 410 l 1,0,-1
54 238 m 1,4,-1
 466 238 l 1,5,-1
 466 156 l 1,6,-1
 54 156 l 1,7,-1
 54 238 l 1,4,-1
EndSplineSet
Validated: 1
EndChar

StartChar: greater
Encoding: 62 62 34
Width: 521
GlyphClass: 2
Flags: W
LayerCount: 2
Fore
SplineSet
54 165 m 1,0,-1
 353 283 l 1,1,-1
 54 399 l 1,2,-1
 54 485 l 1,3,-1
 466 319 l 1,4,-1
 466 246 l 1,5,-1
 54 79 l 1,6,-1
 54 165 l 1,0,-1
EndSplineSet
Validated: 1
Substitution2: "'rtla' Right to Left Alternates lookup 0 subtable" less
EndChar

StartChar: question
Encoding: 63 63 35
Width: 496
GlyphClass: 2
Flags: W
LayerCount: 2
Fore
SplineSet
197 244 m 2,0,1
 197 291 197 291 207.5 318 c 128,-1,2
 218 345 218 345 250 376 c 2,3,-1
 309 434 l 2,4,5
 339 462 339 462 350 485 c 128,-1,6
 361 508 361 508 361 540 c 0,7,8
 361 586 361 586 331 610.5 c 128,-1,9
 301 635 301 635 243 635 c 0,10,11
 124 635 124 635 124 526 c 1,12,-1
 35 526 l 1,13,14
 37 618 37 618 90.5 667.5 c 128,-1,15
 144 717 144 717 244 717 c 0,16,17
 342 717 342 717 398 670.5 c 128,-1,18
 454 624 454 624 454 543 c 0,19,20
 454 501 454 501 439 466 c 128,-1,21
 424 431 424 431 392 397 c 2,22,-1
 323 328 l 2,23,24
 301 306 301 306 294 288 c 128,-1,25
 287 270 287 270 287 240 c 2,26,-1
 287 187 l 1,27,-1
 197 187 l 1,28,-1
 197 244 l 2,0,1
189 105 m 1,29,-1
 293 105 l 1,30,-1
 293 0 l 1,31,-1
 189 0 l 1,32,-1
 189 105 l 1,29,-1
EndSplineSet
Validated: 1
EndChar

StartChar: at
Encoding: 64 64 36
Width: 877
GlyphClass: 2
Flags: W
LayerCount: 2
Fore
SplineSet
238 -85 m 128,-1,1
 151 -37 151 -37 102 50 c 128,-1,2
 53 137 53 137 53 251 c 2,3,-1
 53 329 l 2,4,5
 53 442 53 442 102 528 c 128,-1,6
 151 614 151 614 238.5 662 c 128,-1,7
 326 710 326 710 438 710 c 0,8,9
 550 710 550 710 638 661.5 c 128,-1,10
 726 613 726 613 775 527.5 c 128,-1,11
 824 442 824 442 824 332 c 2,12,-1
 824 255 l 2,13,14
 824 157 824 157 780 107 c 128,-1,15
 736 57 736 57 666 57 c 0,16,17
 623 57 623 57 591.5 75.5 c 128,-1,18
 560 94 560 94 545 128 c 1,19,20
 513 57 513 57 416 57 c 0,21,22
 339 57 339 57 302 105 c 128,-1,23
 265 153 265 153 265 240 c 2,24,-1
 265 330 l 2,25,26
 265 417 265 417 301 465 c 128,-1,27
 337 513 337 513 412 513 c 0,28,29
 450 513 450 513 478 498 c 128,-1,30
 506 483 506 483 522 458 c 1,31,-1
 522 503 l 1,32,-1
 603 503 l 1,33,-1
 603 207 l 2,34,35
 603 167 603 167 621 146.5 c 128,-1,36
 639 126 639 126 667 126 c 0,37,38
 703 126 703 126 721 155.5 c 128,-1,39
 739 185 739 185 739 253 c 2,40,-1
 739 331 l 2,41,42
 739 422 739 422 703 490 c 128,-1,43
 667 558 667 558 598.5 595.5 c 128,-1,44
 530 633 530 633 438 633 c 256,45,46
 346 633 346 633 278.5 596 c 128,-1,47
 211 559 211 559 174.5 490.5 c 128,-1,48
 138 422 138 422 138 330 c 2,49,-1
 138 251 l 2,50,51
 138 159 138 159 174 89.5 c 128,-1,52
 210 20 210 20 278 -18 c 128,-1,53
 346 -56 346 -56 438 -56 c 0,54,55
 503 -56 503 -56 553 -43.5 c 128,-1,56
 603 -31 603 -31 652 -4 c 1,57,-1
 684 -71 l 1,58,59
 628 -104 628 -104 570 -118.5 c 128,-1,60
 512 -133 512 -133 438 -133 c 0,61,0
 325 -133 325 -133 238 -85 c 128,-1,1
520 241 m 2,63,-1
 520 331 l 2,64,65
 520 384 520 384 499 413 c 128,-1,66
 478 442 478 442 435 442 c 0,67,68
 349 442 349 442 349 329 c 2,69,-1
 349 245 l 2,70,71
 349 189 349 189 369 158.5 c 128,-1,72
 389 128 389 128 435 128 c 0,73,62
 520 128 520 128 520 241 c 2,63,-1
EndSplineSet
Validated: 1
EndChar

StartChar: A
Encoding: 65 65 37
Width: 681
GlyphClass: 2
Flags: W
LayerCount: 2
Fore
SplineSet
513 160 m 1,0,-1
 167 160 l 1,1,-1
 103 0 l 1,2,-1
 6 0 l 1,3,-1
 301 707 l 1,4,-1
 380 707 l 1,5,-1
 676 0 l 1,6,-1
 578 0 l 1,7,-1
 513 160 l 1,0,-1
481 239 m 1,8,-1
 340 592 l 1,9,-1
 199 239 l 1,10,-1
 481 239 l 1,8,-1
EndSplineSet
Validated: 1
EndChar

StartChar: B
Encoding: 66 66 38
Width: 687
GlyphClass: 2
Flags: W
LayerCount: 2
Fore
SplineSet
596.5 303.5 m 128,-1,1
 627 261 627 261 627 197 c 0,2,3
 627 101 627 101 566.5 50.5 c 128,-1,4
 506 0 506 0 390 0 c 2,5,-1
 74 0 l 1,6,-1
 74 707 l 1,7,-1
 384 707 l 2,8,9
 497 707 497 707 555.5 658.5 c 128,-1,10
 614 610 614 610 614 517 c 0,11,12
 614 463 614 463 586.5 423 c 128,-1,13
 559 383 559 383 508 365 c 1,14,0
 566 346 566 346 596.5 303.5 c 128,-1,1
167 625 m 1,15,-1
 167 402 l 1,16,-1
 384 402 l 2,17,18
 454 402 454 402 488 429.5 c 128,-1,19
 522 457 522 457 522 513 c 256,20,21
 522 569 522 569 488.5 597 c 128,-1,22
 455 625 455 625 386 625 c 2,23,-1
 167 625 l 1,15,-1
499 111.5 m 128,-1,25
 534 141 534 141 534 203 c 0,26,27
 534 321 534 321 386 321 c 2,28,-1
 167 321 l 1,29,-1
 167 82 l 1,30,-1
 392 82 l 2,31,24
 464 82 464 82 499 111.5 c 128,-1,25
EndSplineSet
Validated: 1
EndChar

StartChar: C
Encoding: 67 67 39
Width: 696
GlyphClass: 2
Flags: W
LayerCount: 2
Fore
SplineSet
139.5 69 m 128,-1,1
 62 147 62 147 62 302 c 2,2,-1
 62 406 l 2,3,4
 62 561 62 561 140 639 c 128,-1,5
 218 717 218 717 360 717 c 0,6,7
 488 717 488 717 562 657.5 c 128,-1,8
 636 598 636 598 636 492 c 2,9,-1
 636 486 l 1,10,-1
 543 486 l 1,11,-1
 543 490 l 2,12,13
 543 559 543 559 495 596 c 128,-1,14
 447 633 447 633 359 633 c 0,15,16
 256 633 256 633 206 576.5 c 128,-1,17
 156 520 156 520 156 400 c 2,18,-1
 156 301 l 2,19,20
 156 185 156 185 206.5 130 c 128,-1,21
 257 75 257 75 360 75 c 0,22,23
 448 75 448 75 495.5 111.5 c 128,-1,24
 543 148 543 148 543 218 c 2,25,-1
 543 222 l 1,26,-1
 635 222 l 1,27,-1
 635 217 l 2,28,29
 635 111 635 111 560.5 51 c 128,-1,30
 486 -9 486 -9 358 -9 c 0,31,0
 217 -9 217 -9 139.5 69 c 128,-1,1
EndSplineSet
Validated: 1
EndChar

StartChar: D
Encoding: 68 68 40
Width: 690
GlyphClass: 2
Flags: W
LayerCount: 2
Fore
SplineSet
74 707 m 1,0,-1
 335 707 l 2,1,2
 476 707 476 707 553 630 c 128,-1,3
 630 553 630 553 630 400 c 2,4,-1
 630 307 l 2,5,6
 630 154 630 154 552.5 77 c 128,-1,7
 475 0 475 0 333 0 c 2,8,-1
 74 0 l 1,9,-1
 74 707 l 1,0,-1
335 83 m 2,10,11
 437 83 437 83 487 137 c 128,-1,12
 537 191 537 191 537 305 c 2,13,-1
 537 395 l 2,14,15
 537 512 537 512 487 568 c 128,-1,16
 437 624 437 624 335 624 c 2,17,-1
 167 624 l 1,18,-1
 167 83 l 1,19,-1
 335 83 l 2,10,11
EndSplineSet
Validated: 1
EndChar

StartChar: E
Encoding: 69 69 41
Width: 611
GlyphClass: 2
Flags: W
LayerCount: 2
Fore
SplineSet
167 624 m 1,0,-1
 167 400 l 1,1,-1
 510 400 l 1,2,-1
 510 317 l 1,3,-1
 167 317 l 1,4,-1
 167 83 l 1,5,-1
 567 83 l 1,6,-1
 567 0 l 1,7,-1
 74 0 l 1,8,-1
 74 707 l 1,9,-1
 567 707 l 1,10,-1
 567 624 l 1,11,-1
 167 624 l 1,0,-1
EndSplineSet
Validated: 1
EndChar

StartChar: F
Encoding: 70 70 42
Width: 604
GlyphClass: 2
Flags: W
LayerCount: 2
Fore
SplineSet
167 624 m 1,0,-1
 167 397 l 1,1,-1
 511 397 l 1,2,-1
 511 314 l 1,3,-1
 167 314 l 1,4,-1
 167 0 l 1,5,-1
 74 0 l 1,6,-1
 74 707 l 1,7,-1
 567 707 l 1,8,-1
 567 624 l 1,9,-1
 167 624 l 1,0,-1
EndSplineSet
Validated: 1
EndChar

StartChar: G
Encoding: 71 71 43
Width: 696
GlyphClass: 2
Flags: W
LayerCount: 2
Fore
SplineSet
139.5 69 m 128,-1,1
 62 147 62 147 62 302 c 2,2,-1
 62 406 l 2,3,4
 62 561 62 561 139.5 639 c 128,-1,5
 217 717 217 717 359 717 c 0,6,7
 486 717 486 717 560.5 656.5 c 128,-1,8
 635 596 635 596 635 493 c 2,9,-1
 635 487 l 1,10,-1
 543 487 l 1,11,-1
 543 492 l 2,12,13
 543 558 543 558 494.5 595.5 c 128,-1,14
 446 633 446 633 359 633 c 0,15,16
 256 633 256 633 206 576.5 c 128,-1,17
 156 520 156 520 156 400 c 2,18,-1
 156 301 l 2,19,20
 156 185 156 185 206.5 130 c 128,-1,21
 257 75 257 75 360 75 c 0,22,23
 543 75 543 75 544 248 c 2,24,-1
 544 290 l 1,25,-1
 348 290 l 1,26,-1
 348 369 l 1,27,-1
 636 369 l 1,28,-1
 636 254 l 2,29,30
 636 125 636 125 562 58 c 128,-1,31
 488 -9 488 -9 359 -9 c 0,32,0
 217 -9 217 -9 139.5 69 c 128,-1,1
EndSplineSet
Validated: 1
EndChar

StartChar: H
Encoding: 72 72 44
Width: 701
GlyphClass: 2
Flags: W
LayerCount: 2
Fore
SplineSet
628 707 m 1,0,-1
 628 0 l 1,1,-1
 536 0 l 1,2,-1
 536 319 l 1,3,-1
 167 319 l 1,4,-1
 167 0 l 1,5,-1
 74 0 l 1,6,-1
 74 707 l 1,7,-1
 167 707 l 1,8,-1
 167 401 l 1,9,-1
 536 401 l 1,10,-1
 536 707 l 1,11,-1
 628 707 l 1,0,-1
EndSplineSet
Validated: 1
EndChar

StartChar: I
Encoding: 73 73 45
Width: 254
GlyphClass: 2
Flags: W
LayerCount: 2
Fore
SplineSet
81 707 m 1,0,-1
 174 707 l 1,1,-1
 174 0 l 1,2,-1
 81 0 l 1,3,-1
 81 707 l 1,0,-1
EndSplineSet
Validated: 1
EndChar

StartChar: J
Encoding: 74 74 46
Width: 353
GlyphClass: 2
Flags: W
LayerCount: 2
Fore
SplineSet
30 83 m 1,0,-1
 93 83 l 2,1,2
 140 83 140 83 159.5 103 c 128,-1,3
 179 123 179 123 179 171 c 2,4,-1
 179 707 l 1,5,-1
 272 707 l 1,6,-1
 272 159 l 2,7,8
 272 79 272 79 232.5 39.5 c 128,-1,9
 193 0 193 0 112 0 c 2,10,-1
 30 0 l 1,11,-1
 30 83 l 1,0,-1
EndSplineSet
Validated: 1
EndChar

StartChar: K
Encoding: 75 75 47
Width: 687
GlyphClass: 2
Flags: W
LayerCount: 2
Fore
SplineSet
327 364 m 1,0,-1
 167 194 l 1,1,-1
 167 0 l 1,2,-1
 74 0 l 1,3,-1
 74 707 l 1,4,-1
 167 707 l 1,5,-1
 167 311 l 1,6,-1
 530 707 l 1,7,-1
 647 707 l 1,8,-1
 388 429 l 1,9,-1
 680 0 l 1,10,-1
 568 0 l 1,11,-1
 327 364 l 1,0,-1
EndSplineSet
Validated: 1
EndChar

StartChar: L
Encoding: 76 76 48
Width: 592
GlyphClass: 2
Flags: W
LayerCount: 2
Fore
SplineSet
74 707 m 1,0,-1
 167 707 l 1,1,-1
 167 83 l 1,2,-1
 563 83 l 1,3,-1
 563 0 l 1,4,-1
 74 0 l 1,5,-1
 74 707 l 1,0,-1
EndSplineSet
Validated: 1
EndChar

StartChar: M
Encoding: 77 77 49
Width: 846
GlyphClass: 2
Flags: W
LayerCount: 2
Fore
SplineSet
773 707 m 1,0,-1
 773 0 l 1,1,-1
 681 0 l 1,2,-1
 681 535 l 1,3,-1
 457 140 l 1,4,-1
 391 140 l 1,5,-1
 167 535 l 1,6,-1
 167 0 l 1,7,-1
 74 0 l 1,8,-1
 74 707 l 1,9,-1
 167 707 l 1,10,-1
 424 248 l 1,11,-1
 681 707 l 1,12,-1
 773 707 l 1,0,-1
EndSplineSet
Validated: 1
EndChar

StartChar: N
Encoding: 78 78 50
Width: 738
GlyphClass: 2
Flags: W
LayerCount: 2
Fore
SplineSet
665 707 m 1,0,-1
 665 0 l 1,1,-1
 571 0 l 1,2,-1
 167 547 l 1,3,-1
 167 0 l 1,4,-1
 74 0 l 1,5,-1
 74 707 l 1,6,-1
 167 707 l 1,7,-1
 571 159 l 1,8,-1
 571 707 l 1,9,-1
 665 707 l 1,0,-1
EndSplineSet
Validated: 1
EndChar

StartChar: O
Encoding: 79 79 51
Width: 711
GlyphClass: 2
Flags: W
LayerCount: 2
Fore
SplineSet
138.5 69 m 128,-1,1
 62 147 62 147 62 302 c 2,2,-1
 62 406 l 2,3,4
 62 561 62 561 139.5 639 c 128,-1,5
 217 717 217 717 358 717 c 0,6,7
 498 717 498 717 574.5 638.5 c 128,-1,8
 651 560 651 560 651 406 c 2,9,-1
 651 302 l 2,10,11
 651 147 651 147 574 69 c 128,-1,12
 497 -9 497 -9 355 -9 c 0,13,0
 215 -9 215 -9 138.5 69 c 128,-1,1
509 130 m 128,-1,15
 559 185 559 185 559 301 c 2,16,-1
 559 400 l 2,17,18
 559 520 559 520 509 576.5 c 128,-1,19
 459 633 459 633 357 633 c 0,20,21
 255 633 255 633 205.5 576.5 c 128,-1,22
 156 520 156 520 156 400 c 2,23,-1
 156 301 l 2,24,25
 156 185 156 185 205.5 130 c 128,-1,26
 255 75 255 75 357 75 c 0,27,14
 459 75 459 75 509 130 c 128,-1,15
EndSplineSet
Validated: 1
EndChar

StartChar: P
Encoding: 80 80 52
Width: 652
GlyphClass: 2
Flags: W
LayerCount: 2
Fore
SplineSet
560.5 653 m 128,-1,1
 623 599 623 599 623 495 c 0,2,3
 623 393 623 393 561 338.5 c 128,-1,4
 499 284 499 284 380 284 c 2,5,-1
 167 284 l 1,6,-1
 167 0 l 1,7,-1
 74 0 l 1,8,-1
 74 707 l 1,9,-1
 380 707 l 2,10,0
 498 707 498 707 560.5 653 c 128,-1,1
493.5 397 m 128,-1,12
 529 427 529 427 529 494 c 0,13,14
 529 564 529 564 492.5 594 c 128,-1,15
 456 624 456 624 376 624 c 2,16,-1
 167 624 l 1,17,-1
 167 367 l 1,18,-1
 382 367 l 2,19,11
 458 367 458 367 493.5 397 c 128,-1,12
EndSplineSet
Validated: 1
EndChar

StartChar: Q
Encoding: 81 81 53
Width: 711
GlyphClass: 2
Flags: W
LayerCount: 2
Fore
SplineSet
536 38 m 1,1,-1
 617 -116 l 1,2,-1
 545 -155 l 1,3,-1
 460 4 l 1,4,5
 414 -9 414 -9 355 -9 c 0,6,7
 215 -9 215 -9 138.5 69 c 128,-1,8
 62 147 62 147 62 302 c 2,9,-1
 62 406 l 2,10,11
 62 561 62 561 139.5 639 c 128,-1,12
 217 717 217 717 358 717 c 0,13,14
 498 717 498 717 574.5 638.5 c 128,-1,15
 651 560 651 560 651 406 c 2,16,-1
 651 302 l 2,17,0
 652 114 652 114 536 38 c 1,1,-1
559 400 m 2,18,19
 559 520 559 520 509 576.5 c 128,-1,20
 459 633 459 633 357 633 c 0,21,22
 255 633 255 633 205.5 576.5 c 128,-1,23
 156 520 156 520 156 400 c 2,24,-1
 156 301 l 2,25,26
 156 185 156 185 205.5 130 c 128,-1,27
 255 75 255 75 357 75 c 0,28,29
 458 75 458 75 508.5 130 c 128,-1,30
 559 185 559 185 559 301 c 2,31,-1
 559 400 l 2,18,19
EndSplineSet
Validated: 33
EndChar

StartChar: R
Encoding: 82 82 54
Width: 680
GlyphClass: 2
Flags: W
LayerCount: 2
Fore
SplineSet
372 301 m 1,0,-1
 167 301 l 1,1,-1
 167 0 l 1,2,-1
 74 0 l 1,3,-1
 74 707 l 1,4,-1
 382 707 l 2,5,6
 499 707 499 707 561 654.5 c 128,-1,7
 623 602 623 602 623 504 c 0,8,9
 623 427 623 427 583.5 377.5 c 128,-1,10
 544 328 544 328 468 310 c 1,11,-1
 643 0 l 1,12,-1
 537 0 l 1,13,-1
 372 301 l 1,0,-1
167 382 m 1,14,-1
 384 382 l 2,15,16
 459 382 459 382 494 411.5 c 128,-1,17
 529 441 529 441 529 504 c 0,18,19
 529 565 529 565 492 594.5 c 128,-1,20
 455 624 455 624 378 624 c 2,21,-1
 167 624 l 1,22,-1
 167 382 l 1,14,-1
EndSplineSet
Validated: 1
EndChar

StartChar: S
Encoding: 83 83 55
Width: 625
GlyphClass: 2
Flags: W
LayerCount: 2
Fore
SplineSet
108.5 47 m 128,-1,1
 39 100 39 100 32 204 c 1,2,-1
 122 204 l 1,3,4
 128 135 128 135 174.5 104.5 c 128,-1,5
 221 74 221 74 309 74 c 0,6,7
 491 74 491 74 492 196 c 0,8,9
 492 249 492 249 457 277.5 c 128,-1,10
 422 306 422 306 349 314 c 2,11,-1
 254 326 l 2,12,13
 48 352 48 352 48 515 c 0,14,15
 48 610 48 610 117.5 663 c 128,-1,16
 187 716 187 716 308 716 c 0,17,18
 426 716 426 716 493 665 c 128,-1,19
 560 614 560 614 570 515 c 1,20,-1
 480 515 l 1,21,22
 475 576 475 576 433 606.5 c 128,-1,23
 391 637 391 637 308 637 c 0,24,25
 224 637 224 637 181 607.5 c 128,-1,26
 138 578 138 578 138 521 c 0,27,28
 138 472 138 472 171.5 444.5 c 128,-1,29
 205 417 205 417 275 408 c 2,30,-1
 375 396 l 2,31,32
 584 368 584 368 584 202 c 0,33,34
 584 103 584 103 510 48.5 c 128,-1,35
 436 -6 436 -6 305 -6 c 0,36,0
 178 -6 178 -6 108.5 47 c 128,-1,1
EndSplineSet
Validated: 1
EndChar

StartChar: T
Encoding: 84 84 56
Width: 563
GlyphClass: 2
Flags: W
LayerCount: 2
Fore
SplineSet
556 624 m 1,0,-1
 328 624 l 1,1,-1
 328 0 l 1,2,-1
 236 0 l 1,3,-1
 236 624 l 1,4,-1
 7 624 l 1,5,-1
 7 707 l 1,6,-1
 556 707 l 1,7,-1
 556 624 l 1,0,-1
EndSplineSet
Validated: 1
EndChar

StartChar: U
Encoding: 85 85 57
Width: 708
GlyphClass: 2
Flags: W
LayerCount: 2
Fore
SplineSet
148 62 m 128,-1,1
 74 130 74 130 74 253 c 2,2,-1
 74 707 l 1,3,-1
 167 707 l 1,4,-1
 167 259 l 2,5,6
 167 76 167 76 354 76 c 256,7,8
 541 76 541 76 542 259 c 2,9,-1
 542 707 l 1,10,-1
 635 707 l 1,11,-1
 635 253 l 2,12,13
 635 130 635 130 560.5 62 c 128,-1,14
 486 -6 486 -6 354 -6 c 256,15,0
 222 -6 222 -6 148 62 c 128,-1,1
EndSplineSet
Validated: 1
EndChar

StartChar: V
Encoding: 86 86 58
Width: 619
GlyphClass: 2
Flags: W
LayerCount: 2
Fore
SplineSet
6 707 m 1,0,-1
 103 707 l 1,1,-1
 311 126 l 1,2,-1
 516 707 l 1,3,-1
 613 707 l 1,4,-1
 350 0 l 1,5,-1
 272 0 l 1,6,-1
 6 707 l 1,0,-1
EndSplineSet
Validated: 1
EndChar

StartChar: W
Encoding: 87 87 59
Width: 935
GlyphClass: 2
Flags: W
LayerCount: 2
Fore
SplineSet
930 707 m 1,0,-1
 729 0 l 1,1,-1
 635 0 l 1,2,-1
 470 591 l 1,3,-1
 305 0 l 1,4,-1
 211 0 l 1,5,-1
 6 707 l 1,6,-1
 98 707 l 1,7,-1
 261 131 l 1,8,-1
 412 707 l 1,9,-1
 527 707 l 1,10,-1
 685 131 l 1,11,-1
 840 707 l 1,12,-1
 930 707 l 1,0,-1
EndSplineSet
Validated: 1
EndChar

StartChar: X
Encoding: 88 88 60
Width: 663
GlyphClass: 2
Flags: W
LayerCount: 2
Fore
SplineSet
276 368 m 1,0,-1
 28 707 l 1,1,-1
 138 707 l 1,2,-1
 333 439 l 1,3,-1
 525 707 l 1,4,-1
 633 707 l 1,5,-1
 386 371 l 1,6,-1
 657 0 l 1,7,-1
 547 0 l 1,8,-1
 328 299 l 1,9,-1
 114 0 l 1,10,-1
 6 0 l 1,11,-1
 276 368 l 1,0,-1
EndSplineSet
Validated: 1
EndChar

StartChar: Y
Encoding: 89 89 61
Width: 593
GlyphClass: 2
Flags: W
LayerCount: 2
Fore
SplineSet
343 285 m 1,0,-1
 343 0 l 1,1,-1
 251 0 l 1,2,-1
 251 286 l 1,3,-1
 6 707 l 1,4,-1
 111 707 l 1,5,-1
 298 364 l 1,6,-1
 483 707 l 1,7,-1
 588 707 l 1,8,-1
 343 285 l 1,0,-1
EndSplineSet
Validated: 1
EndChar

StartChar: Z
Encoding: 90 90 62
Width: 584
GlyphClass: 2
Flags: W
LayerCount: 2
Fore
SplineSet
551 84 m 1,0,-1
 551 1 l 1,1,-1
 37 1 l 1,2,-1
 37 84 l 1,3,-1
 438 625 l 1,4,-1
 50 625 l 1,5,-1
 50 708 l 1,6,-1
 546 708 l 1,7,-1
 546 625 l 1,8,-1
 145 84 l 1,9,-1
 551 84 l 1,0,-1
EndSplineSet
Validated: 1
EndChar

StartChar: bracketleft
Encoding: 91 91 63
Width: 330
GlyphClass: 2
Flags: W
LayerCount: 2
Fore
SplineSet
74 758 m 1,0,-1
 278 758 l 1,1,-1
 278 675 l 1,2,-1
 162 675 l 1,3,-1
 162 -3 l 1,4,-1
 278 -3 l 1,5,-1
 278 -86 l 1,6,-1
 74 -86 l 1,7,-1
 74 758 l 1,0,-1
EndSplineSet
Validated: 1
Substitution2: "'rtla' Right to Left Alternates lookup 0 subtable" bracketright
EndChar

StartChar: backslash
Encoding: 92 92 64
Width: 438
GlyphClass: 2
Flags: W
LayerCount: 2
Fore
SplineSet
53 709 m 1,0,-1
 128 709 l 1,1,-1
 385 -10 l 1,2,-1
 310 -10 l 1,3,-1
 53 709 l 1,0,-1
EndSplineSet
Validated: 1
EndChar

StartChar: bracketright
Encoding: 93 93 65
Width: 330
GlyphClass: 2
Flags: W
LayerCount: 2
Fore
SplineSet
53 -3 m 1,0,-1
 168 -3 l 1,1,-1
 168 675 l 1,2,-1
 53 675 l 1,3,-1
 53 758 l 1,4,-1
 257 758 l 1,5,-1
 257 -86 l 1,6,-1
 53 -86 l 1,7,-1
 53 -3 l 1,0,-1
EndSplineSet
Validated: 1
Substitution2: "'rtla' Right to Left Alternates lookup 0 subtable" bracketleft
EndChar

StartChar: asciicircum
Encoding: 94 94 66
Width: 521
GlyphClass: 2
Flags: W
LayerCount: 2
Fore
SplineSet
223 709 m 1,0,-1
 298 709 l 1,1,-1
 471 288 l 1,2,-1
 396 288 l 1,3,-1
 260 624 l 1,4,-1
 125 288 l 1,5,-1
 50 288 l 1,6,-1
 223 709 l 1,0,-1
EndSplineSet
Validated: 1
EndChar

StartChar: underscore
Encoding: 95 95 67
Width: 549
GlyphClass: 2
Flags: W
LayerCount: 2
Fore
SplineSet
0 -51 m 1,0,-1
 550 -51 l 1,1,-1
 550 -112 l 1,2,-1
 0 -112 l 1,3,-1
 0 -51 l 1,0,-1
EndSplineSet
Validated: 1
EndChar

StartChar: grave
Encoding: 96 96 68
Width: 512
GlyphClass: 2
Flags: W
LayerCount: 2
Fore
SplineSet
99 722 m 1,0,-1
 213 722 l 1,1,-1
 331 591 l 1,2,-1
 247 591 l 1,3,-1
 99 722 l 1,0,-1
EndSplineSet
Validated: 1
EndChar

StartChar: a
Encoding: 97 97 69
Width: 562
GlyphClass: 2
Flags: W
LayerCount: 2
Fore
SplineSet
435.5 482.5 m 128,-1,1
 494 434 494 434 494 342 c 2,2,-1
 494 0 l 1,3,-1
 409 0 l 1,4,-1
 409 59 l 1,5,6
 355 -7 355 -7 238 -6 c 0,7,8
 143 -6 143 -6 93 34.5 c 128,-1,9
 43 75 43 75 43 152 c 0,10,11
 43 226 43 226 94 265 c 128,-1,12
 145 304 145 304 244 304 c 2,13,-1
 407 304 l 1,14,-1
 407 340 l 2,15,16
 407 459 407 459 268 459 c 0,17,18
 208 459 208 459 176.5 436.5 c 128,-1,19
 145 414 145 414 145 373 c 2,20,-1
 145 370 l 1,21,-1
 60 370 l 1,22,-1
 60 373 l 2,23,24
 60 447 60 447 115.5 489 c 128,-1,25
 171 531 171 531 267 531 c 0,26,0
 377 531 377 531 435.5 482.5 c 128,-1,1
370 97.5 m 128,-1,28
 407 130 407 130 407 198 c 2,29,-1
 407 239 l 1,30,-1
 258 239 l 2,31,32
 191 239 191 239 160 218 c 128,-1,33
 129 197 129 197 129 153 c 0,34,35
 129 108 129 108 159.5 86.5 c 128,-1,36
 190 65 190 65 255 65 c 0,37,27
 333 65 333 65 370 97.5 c 128,-1,28
EndSplineSet
Validated: 33
EndChar

StartChar: b
Encoding: 98 98 70
Width: 593
GlyphClass: 2
Flags: W
LayerCount: 2
Fore
SplineSet
223 10.5 m 128,-1,1
 181 30 181 30 155 68 c 1,2,-1
 155 0 l 1,3,-1
 69 0 l 1,4,-1
 69 707 l 1,5,-1
 156 707 l 1,6,-1
 156 454 l 1,7,8
 182 492 182 492 224.5 513.5 c 128,-1,9
 267 535 267 535 322 535 c 0,10,11
 421 535 421 535 481 471.5 c 128,-1,12
 541 408 541 408 541 291 c 2,13,-1
 541 236 l 2,14,15
 541 118 541 118 481 54.5 c 128,-1,16
 421 -9 421 -9 322 -9 c 0,17,0
 265 -9 265 -9 223 10.5 c 128,-1,1
416 111 m 128,-1,19
 454 154 454 154 454 240 c 2,20,-1
 454 287 l 2,21,22
 454 373 454 373 416 415 c 128,-1,23
 378 457 378 457 307 457 c 256,24,25
 236 457 236 457 196 413.5 c 128,-1,26
 156 370 156 370 156 296 c 2,27,-1
 156 227 l 2,28,29
 156 154 156 154 197 111 c 128,-1,30
 238 68 238 68 309 68 c 0,31,18
 378 68 378 68 416 111 c 128,-1,19
EndSplineSet
Validated: 1
EndChar

StartChar: c
Encoding: 99 99 71
Width: 566
GlyphClass: 2
Flags: W
LayerCount: 2
Fore
SplineSet
116.5 54 m 128,-1,1
 53 117 53 117 53 237 c 2,2,-1
 53 289 l 2,3,4
 53 409 53 409 116.5 472 c 128,-1,5
 180 535 180 535 293 535 c 0,6,7
 396 535 396 535 454.5 484 c 128,-1,8
 513 433 513 433 513 344 c 2,9,-1
 513 339 l 1,10,-1
 428 339 l 1,11,-1
 428 344 l 2,12,13
 428 397 428 397 393 427 c 128,-1,14
 358 457 358 457 294 457 c 0,15,16
 140 457 140 457 140 287 c 2,17,-1
 140 239 l 2,18,19
 140 68 140 68 294 68 c 0,20,21
 359 68 359 68 393.5 97.5 c 128,-1,22
 428 127 428 127 428 179 c 2,23,-1
 428 183 l 1,24,-1
 513 183 l 1,25,-1
 513 179 l 2,26,27
 513 92 513 92 455 41.5 c 128,-1,28
 397 -9 397 -9 294 -9 c 0,29,0
 180 -9 180 -9 116.5 54 c 128,-1,1
EndSplineSet
Validated: 1
EndChar

StartChar: d
Encoding: 100 100 72
Width: 593
GlyphClass: 2
Flags: W
LayerCount: 2
Fore
SplineSet
111.5 54 m 128,-1,1
 53 117 53 117 53 234 c 2,2,-1
 53 291 l 2,3,4
 53 408 53 408 112 471.5 c 128,-1,5
 171 535 171 535 268 535 c 0,6,7
 323 535 323 535 368 513.5 c 128,-1,8
 413 492 413 492 438 455 c 1,9,-1
 438 707 l 1,10,-1
 524 707 l 1,11,-1
 524 0 l 1,12,-1
 438 0 l 1,13,-1
 438 69 l 1,14,15
 412 31 412 31 369.5 11 c 128,-1,16
 327 -9 327 -9 270 -9 c 0,17,0
 170 -9 170 -9 111.5 54 c 128,-1,1
398 111 m 128,-1,19
 438 154 438 154 438 227 c 2,20,-1
 438 296 l 2,21,22
 438 371 438 371 397.5 414 c 128,-1,23
 357 457 357 457 286 457 c 0,24,25
 216 457 216 457 178 414.5 c 128,-1,26
 140 372 140 372 140 286 c 2,27,-1
 140 239 l 2,28,29
 140 153 140 153 178.5 110.5 c 128,-1,30
 217 68 217 68 287 68 c 0,31,18
 358 68 358 68 398 111 c 128,-1,19
EndSplineSet
Validated: 1
EndChar

StartChar: e
Encoding: 101 101 73
Width: 570
GlyphClass: 2
Flags: W
LayerCount: 2
Fore
SplineSet
140 241 m 1,0,-1
 140 237 l 2,1,2
 140 67 140 67 299 67 c 0,3,4
 359 67 359 67 392.5 95 c 128,-1,5
 426 123 426 123 427 166 c 2,6,-1
 427 169 l 1,7,-1
 513 169 l 1,8,-1
 513 165 l 2,9,10
 512 116 512 116 486 76.5 c 128,-1,11
 460 37 460 37 411 14 c 128,-1,12
 362 -9 362 -9 297 -9 c 0,13,14
 182 -9 182 -9 117.5 55 c 128,-1,15
 53 119 53 119 53 242 c 2,16,-1
 53 284 l 2,17,18
 53 405 53 405 114.5 470 c 128,-1,19
 176 535 176 535 286 535 c 0,20,21
 394 535 394 535 455 475 c 128,-1,22
 516 415 516 415 516 302 c 2,23,-1
 516 241 l 1,24,-1
 140 241 l 1,0,-1
181.5 420.5 m 128,-1,26
 144 383 144 383 140 306 c 1,27,-1
 429 306 l 1,28,-1
 429 315 l 2,29,30
 429 387 429 387 391.5 422.5 c 128,-1,31
 354 458 354 458 286 458 c 0,32,25
 219 458 219 458 181.5 420.5 c 128,-1,26
EndSplineSet
Validated: 1
EndChar

StartChar: f
Encoding: 102 102 74
Width: 372
GlyphClass: 2
Flags: W
LayerCount: 2
Fore
SplineSet
227 623 m 128,-1,1
 207 604 207 604 207 564 c 2,2,-1
 207 524 l 1,3,-1
 338 524 l 1,4,-1
 338 459 l 1,5,-1
 207 459 l 1,6,-1
 207 0 l 1,7,-1
 120 0 l 1,8,-1
 120 459 l 1,9,-1
 46 459 l 1,10,-1
 46 524 l 1,11,-1
 120 524 l 1,12,-1
 120 561 l 2,13,14
 120 632 120 632 160 669.5 c 128,-1,15
 200 707 200 707 275 707 c 2,16,-1
 338 707 l 1,17,-1
 338 642 l 1,18,-1
 290 642 l 2,19,0
 247 642 247 642 227 623 c 128,-1,1
EndSplineSet
Validated: 1
EndChar

StartChar: g
Encoding: 103 103 75
Width: 593
GlyphClass: 2
Flags: W
LayerCount: 2
Fore
SplineSet
127.5 -126.5 m 128,-1,1
 71 -89 71 -89 65 -16 c 1,2,-1
 150 -16 l 1,3,4
 159 -54 159 -54 191.5 -72 c 128,-1,5
 224 -90 224 -90 286 -90 c 0,6,7
 364 -90 364 -90 401 -58.5 c 128,-1,8
 438 -27 438 -27 438 39 c 2,9,-1
 438 94 l 1,10,11
 412 55 412 55 369.5 35 c 128,-1,12
 327 15 327 15 270 15 c 0,13,14
 171 15 171 15 112 77 c 128,-1,15
 53 139 53 139 53 253 c 2,16,-1
 53 293 l 2,17,18
 53 409 53 409 111.5 472 c 128,-1,19
 170 535 170 535 268 535 c 0,20,21
 323 535 323 535 368 514 c 128,-1,22
 413 493 413 493 438 456 c 1,23,-1
 438 524 l 1,24,-1
 524 524 l 1,25,-1
 524 45 l 2,26,27
 524 -55 524 -55 462 -109.5 c 128,-1,28
 400 -164 400 -164 285 -164 c 0,29,0
 184 -164 184 -164 127.5 -126.5 c 128,-1,1
398.5 134 m 128,-1,31
 438 175 438 175 438 251 c 2,32,-1
 438 299 l 2,33,34
 438 372 438 372 397.5 415 c 128,-1,35
 357 458 357 458 286 458 c 0,36,37
 216 458 216 458 178 415.5 c 128,-1,38
 140 373 140 373 140 288 c 2,39,-1
 140 258 l 2,40,41
 140 176 140 176 178.5 134.5 c 128,-1,42
 217 93 217 93 286 93 c 0,43,30
 359 93 359 93 398.5 134 c 128,-1,31
EndSplineSet
Validated: 1
EndChar

StartChar: h
Encoding: 104 104 76
Width: 585
GlyphClass: 2
Flags: W
LayerCount: 2
Fore
SplineSet
69 707 m 1,0,-1
 156 707 l 1,1,-1
 156 454 l 1,2,3
 184 492 184 492 226 511 c 128,-1,4
 268 530 268 530 322 530 c 0,5,6
 415 530 415 530 466 477 c 128,-1,7
 517 424 517 424 517 330 c 2,8,-1
 517 0 l 1,9,-1
 430 0 l 1,10,-1
 430 318 l 2,11,12
 430 385 430 385 397 419 c 128,-1,13
 364 453 364 453 300 453 c 0,14,15
 234 453 234 453 195 414 c 128,-1,16
 156 375 156 375 156 307 c 2,17,-1
 156 0 l 1,18,-1
 69 0 l 1,19,-1
 69 707 l 1,0,-1
EndSplineSet
Validated: 1
EndChar

StartChar: i
Encoding: 105 105 77
Width: 239
GlyphClass: 2
Flags: W
LayerCount: 2
Fore
SplineSet
76 706 m 1,0,-1
 163 706 l 1,1,-1
 163 611 l 1,2,-1
 76 611 l 1,3,-1
 76 706 l 1,0,-1
76 524 m 1,4,-1
 163 524 l 1,5,-1
 163 0 l 1,6,-1
 76 0 l 1,7,-1
 76 524 l 1,4,-1
EndSplineSet
Validated: 1
EndChar

StartChar: j
Encoding: 106 106 78
Width: 237
GlyphClass: 2
Flags: W
LayerCount: 2
Fore
SplineSet
73 707 m 1,0,-1
 161 707 l 1,1,-1
 161 611 l 1,2,-1
 73 611 l 1,3,-1
 73 707 l 1,0,-1
-55 -79 m 1,4,-1
 -9 -79 l 2,5,6
 36 -79 36 -79 55.5 -59.5 c 128,-1,7
 75 -40 75 -40 75 6 c 2,8,-1
 75 524 l 1,9,-1
 162 524 l 1,10,-1
 162 0 l 2,11,12
 162 -78 162 -78 121.5 -117.5 c 128,-1,13
 81 -157 81 -157 1 -157 c 2,14,-1
 -55 -157 l 1,15,-1
 -55 -79 l 1,4,-1
EndSplineSet
Validated: 1
EndChar

StartChar: k
Encoding: 107 107 79
Width: 571
GlyphClass: 2
Flags: W
LayerCount: 2
Fore
SplineSet
265 264 m 1,0,-1
 156 155 l 1,1,-1
 156 0 l 1,2,-1
 69 0 l 1,3,-1
 69 707 l 1,4,-1
 156 707 l 1,5,-1
 156 259 l 1,6,-1
 417 524 l 1,7,-1
 526 524 l 1,8,-1
 325 324 l 1,9,-1
 554 0 l 1,10,-1
 451 0 l 1,11,-1
 265 264 l 1,0,-1
EndSplineSet
Validated: 1
EndChar

StartChar: l
Encoding: 108 108 80
Width: 309
GlyphClass: 2
Flags: W
LayerCount: 2
Fore
SplineSet
108 38.5 m 128,-1,1
 69 77 69 77 69 158 c 2,2,-1
 69 707 l 1,3,-1
 156 707 l 1,4,-1
 156 163 l 2,5,6
 156 117 156 117 175 97.5 c 128,-1,7
 194 78 194 78 241 78 c 2,8,-1
 286 78 l 1,9,-1
 286 0 l 1,10,-1
 229 0 l 2,11,0
 147 0 147 0 108 38.5 c 128,-1,1
EndSplineSet
Validated: 1
EndChar

StartChar: m
Encoding: 109 109 81
Width: 933
GlyphClass: 2
Flags: W
LayerCount: 2
Fore
SplineSet
69 524 m 1,0,-1
 155 524 l 1,1,-1
 155 454 l 1,2,3
 183 492 183 492 225.5 511 c 128,-1,4
 268 530 268 530 321 530 c 0,5,6
 374 530 374 530 416 508 c 128,-1,7
 458 486 458 486 482 446 c 1,8,9
 515 489 515 489 559.5 509.5 c 128,-1,10
 604 530 604 530 666 530 c 0,11,12
 761 530 761 530 812.5 477.5 c 128,-1,13
 864 425 864 425 864 330 c 2,14,-1
 864 0 l 1,15,-1
 777 0 l 1,16,-1
 777 318 l 2,17,18
 777 385 777 385 744.5 419 c 128,-1,19
 712 453 712 453 649 453 c 0,20,21
 582 453 582 453 546.5 417.5 c 128,-1,22
 511 382 511 382 511 316 c 2,23,-1
 511 0 l 1,24,-1
 423 0 l 1,25,-1
 423 319 l 2,26,27
 423 385 423 385 390.5 419 c 128,-1,28
 358 453 358 453 300 453 c 0,29,30
 234 453 234 453 195 414 c 128,-1,31
 156 375 156 375 156 307 c 2,32,-1
 156 0 l 1,33,-1
 69 0 l 1,34,-1
 69 524 l 1,0,-1
EndSplineSet
Validated: 1
EndChar

StartChar: n
Encoding: 110 110 82
Width: 585
GlyphClass: 2
Flags: W
LayerCount: 2
Fore
SplineSet
69 524 m 1,0,-1
 155 524 l 1,1,-1
 155 454 l 1,2,3
 183 492 183 492 225.5 511 c 128,-1,4
 268 530 268 530 322 530 c 0,5,6
 415 530 415 530 466 477 c 128,-1,7
 517 424 517 424 517 330 c 2,8,-1
 517 0 l 1,9,-1
 430 0 l 1,10,-1
 430 318 l 2,11,12
 430 385 430 385 397 419 c 128,-1,13
 364 453 364 453 300 453 c 0,14,15
 234 453 234 453 195 414 c 128,-1,16
 156 375 156 375 156 307 c 2,17,-1
 156 0 l 1,18,-1
 69 0 l 1,19,-1
 69 524 l 1,0,-1
EndSplineSet
Validated: 1
EndChar

StartChar: o
Encoding: 111 111 83
Width: 585
GlyphClass: 2
Flags: W
LayerCount: 2
Fore
SplineSet
117 54 m 128,-1,1
 53 117 53 117 53 237 c 2,2,-1
 53 289 l 2,3,4
 53 409 53 409 117 472 c 128,-1,5
 181 535 181 535 294 535 c 0,6,7
 406 535 406 535 469 471.5 c 128,-1,8
 532 408 532 408 532 289 c 2,9,-1
 532 237 l 2,10,11
 532 117 532 117 469 54 c 128,-1,12
 406 -9 406 -9 294 -9 c 0,13,0
 181 -9 181 -9 117 54 c 128,-1,1
445 239 m 2,15,-1
 445 287 l 2,16,17
 445 457 445 457 293 457 c 256,18,19
 140 457 140 457 140 287 c 2,20,-1
 140 239 l 2,21,22
 140 68 140 68 293 68 c 256,23,14
 445 68 445 68 445 239 c 2,15,-1
EndSplineSet
Validated: 1
EndChar

StartChar: p
Encoding: 112 112 84
Width: 593
GlyphClass: 2
Flags: W
LayerCount: 2
Fore
SplineSet
69 524 m 1,0,-1
 155 524 l 1,1,-1
 155 454 l 1,2,3
 182 492 182 492 224.5 513 c 128,-1,4
 267 534 267 534 322 534 c 0,5,6
 421 534 421 534 481 471 c 128,-1,7
 541 408 541 408 541 291 c 2,8,-1
 541 236 l 2,9,10
 541 118 541 118 481 54.5 c 128,-1,11
 421 -9 421 -9 322 -9 c 0,12,13
 209 -9 209 -9 156 68 c 1,14,-1
 156 -166 l 1,15,-1
 69 -166 l 1,16,-1
 69 524 l 1,0,-1
416 111 m 128,-1,18
 454 154 454 154 454 240 c 2,19,-1
 454 286 l 2,20,21
 454 372 454 372 416 414.5 c 128,-1,22
 378 457 378 457 307 457 c 256,23,24
 236 457 236 457 196 413.5 c 128,-1,25
 156 370 156 370 156 296 c 2,26,-1
 156 227 l 2,27,28
 156 154 156 154 197 111 c 128,-1,29
 238 68 238 68 309 68 c 0,30,17
 378 68 378 68 416 111 c 128,-1,18
EndSplineSet
Validated: 1
EndChar

StartChar: q
Encoding: 113 113 85
Width: 593
GlyphClass: 2
Flags: W
LayerCount: 2
Fore
SplineSet
438 69 m 1,0,1
 412 31 412 31 369 11 c 128,-1,2
 326 -9 326 -9 270 -9 c 0,3,4
 170 -9 170 -9 111.5 54 c 128,-1,5
 53 117 53 117 53 234 c 2,6,-1
 53 291 l 2,7,8
 53 408 53 408 112 471 c 128,-1,9
 171 534 171 534 269 534 c 0,10,11
 324 534 324 534 368.5 513 c 128,-1,12
 413 492 413 492 438 455 c 1,13,-1
 438 524 l 1,14,-1
 524 524 l 1,15,-1
 524 -166 l 1,16,-1
 438 -166 l 1,17,-1
 438 69 l 1,0,1
398 111 m 128,-1,19
 438 154 438 154 438 227 c 2,20,-1
 438 296 l 2,21,22
 438 371 438 371 397.5 414 c 128,-1,23
 357 457 357 457 286 457 c 0,24,25
 216 457 216 457 178 414.5 c 128,-1,26
 140 372 140 372 140 286 c 2,27,-1
 140 239 l 2,28,29
 140 153 140 153 178.5 110.5 c 128,-1,30
 217 68 217 68 287 68 c 0,31,18
 358 68 358 68 398 111 c 128,-1,19
EndSplineSet
Validated: 1
EndChar

StartChar: r
Encoding: 114 114 86
Width: 387
GlyphClass: 2
Flags: W
LayerCount: 2
Fore
SplineSet
69 524 m 1,0,-1
 155 524 l 1,1,-1
 155 451 l 1,2,3
 182 492 182 492 224.5 511.5 c 128,-1,4
 267 531 267 531 322 531 c 0,5,6
 345 531 345 531 364 528 c 1,7,-1
 364 445 l 1,8,9
 336 453 336 453 306 454 c 0,10,11
 238 454 238 454 197 413 c 128,-1,12
 156 372 156 372 156 302 c 2,13,-1
 156 0 l 1,14,-1
 69 0 l 1,15,-1
 69 524 l 1,0,-1
EndSplineSet
Validated: 1
EndChar

StartChar: s
Encoding: 115 115 87
Width: 529
GlyphClass: 2
Flags: W
LayerCount: 2
Fore
SplineSet
101.5 37.5 m 128,-1,1
 43 81 43 81 43 157 c 2,2,-1
 43 160 l 1,3,-1
 126 160 l 1,4,-1
 126 158 l 2,5,6
 126 116 126 116 161 91.5 c 128,-1,7
 196 67 196 67 268 67 c 0,8,9
 334 67 334 67 371.5 88.5 c 128,-1,10
 409 110 409 110 409 151 c 0,11,12
 409 185 409 185 381.5 202 c 128,-1,13
 354 219 354 219 295 225 c 2,14,-1
 220 234 l 2,15,16
 133 244 133 244 92 278.5 c 128,-1,17
 51 313 51 313 51 376 c 0,18,19
 51 449 51 449 108.5 490 c 128,-1,20
 166 531 166 531 264 531 c 0,21,22
 366 531 366 531 424.5 489 c 128,-1,23
 483 447 483 447 483 376 c 2,24,-1
 483 372 l 1,25,-1
 400 372 l 1,26,-1
 400 375 l 2,27,28
 400 417 400 417 365 439 c 128,-1,29
 330 461 330 461 265 461 c 0,30,31
 199 461 199 461 166.5 440.5 c 128,-1,32
 134 420 134 420 134 382 c 0,33,34
 134 349 134 349 157.5 332 c 128,-1,35
 181 315 181 315 239 309 c 2,36,-1
 318 299 l 2,37,38
 406 289 406 289 449 254 c 128,-1,39
 492 219 492 219 492 156 c 0,40,41
 492 79 492 79 431 36.5 c 128,-1,42
 370 -6 370 -6 264 -6 c 0,43,0
 160 -6 160 -6 101.5 37.5 c 128,-1,1
EndSplineSet
Validated: 1
EndChar

StartChar: t
Encoding: 116 116 88
Width: 392
GlyphClass: 2
Flags: W
LayerCount: 2
Fore
SplineSet
211 459 m 1,0,-1
 211 156 l 2,1,2
 211 113 211 113 230.5 94.5 c 128,-1,3
 250 76 250 76 295 76 c 2,4,-1
 339 76 l 1,5,-1
 339 0 l 1,6,-1
 281 0 l 2,7,8
 124 0 124 0 124 151 c 2,9,-1
 124 459 l 1,10,-1
 32 459 l 1,11,-1
 32 524 l 1,12,-1
 124 524 l 1,13,-1
 124 638 l 1,14,-1
 211 674 l 1,15,-1
 211 524 l 1,16,-1
 350 524 l 1,17,-1
 350 459 l 1,18,-1
 211 459 l 1,0,-1
EndSplineSet
Validated: 1
EndChar

StartChar: u
Encoding: 117 117 89
Width: 585
GlyphClass: 2
Flags: W
LayerCount: 2
Fore
SplineSet
126 48.5 m 128,-1,1
 69 104 69 104 69 208 c 2,2,-1
 69 524 l 1,3,-1
 156 524 l 1,4,-1
 156 217 l 2,5,6
 156 71 156 71 293 71 c 0,7,8
 364 71 364 71 397 107 c 128,-1,9
 430 143 430 143 430 217 c 2,10,-1
 430 524 l 1,11,-1
 517 524 l 1,12,-1
 517 208 l 2,13,14
 517 105 517 105 459 49 c 128,-1,15
 401 -7 401 -7 292 -7 c 0,16,0
 183 -7 183 -7 126 48.5 c 128,-1,1
EndSplineSet
Validated: 1
EndChar

StartChar: v
Encoding: 118 118 90
Width: 525
GlyphClass: 2
Flags: W
LayerCount: 2
Fore
SplineSet
13 524 m 1,0,-1
 106 524 l 1,1,-1
 263 109 l 1,2,-1
 419 524 l 1,3,-1
 512 524 l 1,4,-1
 305 0 l 1,5,-1
 220 0 l 1,6,-1
 13 524 l 1,0,-1
EndSplineSet
Validated: 1
EndChar

StartChar: w
Encoding: 119 119 91
Width: 839
GlyphClass: 2
Flags: W
LayerCount: 2
Fore
SplineSet
13 524 m 1,0,-1
 106 524 l 1,1,-1
 240 111 l 1,2,-1
 384 524 l 1,3,-1
 455 524 l 1,4,-1
 600 111 l 1,5,-1
 733 524 l 1,6,-1
 826 524 l 1,7,-1
 645 0 l 1,8,-1
 559 0 l 1,9,-1
 419 399 l 1,10,-1
 279 0 l 1,11,-1
 194 0 l 1,12,-1
 13 524 l 1,0,-1
EndSplineSet
Validated: 1
EndChar

StartChar: x
Encoding: 120 120 92
Width: 499
GlyphClass: 2
Flags: W
LayerCount: 2
Fore
SplineSet
393 0 m 1,0,-1
 249 204 l 1,1,-1
 106 0 l 1,2,-1
 13 0 l 1,3,-1
 203 268 l 1,4,-1
 23 524 l 1,5,-1
 116 524 l 1,6,-1
 249 336 l 1,7,-1
 381 524 l 1,8,-1
 474 524 l 1,9,-1
 294 271 l 1,10,-1
 486 0 l 1,11,-1
 393 0 l 1,0,-1
EndSplineSet
Validated: 1
EndChar

StartChar: y
Encoding: 121 121 93
Width: 525
GlyphClass: 2
Flags: W
LayerCount: 2
Fore
SplineSet
512 524 m 1,0,-1
 286 -52 l 2,1,2
 264 -107 264 -107 223 -132 c 128,-1,3
 182 -157 182 -157 116 -157 c 2,4,-1
 79 -157 l 1,5,-1
 79 -78 l 1,6,-1
 116 -78 l 2,7,8
 162 -78 162 -78 184.5 -64.5 c 128,-1,9
 207 -51 207 -51 219 -17 c 2,10,-1
 225 0 l 1,11,-1
 13 524 l 1,12,-1
 106 524 l 1,13,-1
 267 112 l 1,14,-1
 421 524 l 1,15,-1
 512 524 l 1,0,-1
EndSplineSet
Validated: 1
EndChar

StartChar: z
Encoding: 122 122 94
Width: 512
GlyphClass: 2
Flags: W
LayerCount: 2
Fore
SplineSet
459 446 m 1,0,-1
 154 77 l 1,1,-1
 459 77 l 1,2,-1
 459 0 l 1,3,-1
 53 0 l 1,4,-1
 53 77 l 1,5,-1
 356 446 l 1,6,-1
 53 446 l 1,7,-1
 53 524 l 1,8,-1
 459 524 l 1,9,-1
 459 446 l 1,0,-1
EndSplineSet
Validated: 1
EndChar

StartChar: braceleft
Encoding: 123 123 95
Width: 386
GlyphClass: 2
Flags: W
LayerCount: 2
Fore
SplineSet
143 32 m 2,1,-1
 143 216 l 2,2,3
 143 261 143 261 123.5 279.5 c 128,-1,4
 104 298 104 298 53 299 c 1,5,-1
 53 378 l 1,6,7
 104 379 104 379 123.5 397.5 c 128,-1,8
 143 416 143 416 143 460 c 2,9,-1
 143 640 l 2,10,11
 143 758 143 758 258 758 c 2,12,-1
 333 758 l 1,13,-1
 333 683 l 1,14,-1
 282 683 l 2,15,16
 255 683 255 683 243 670.5 c 128,-1,17
 231 658 231 658 231 631 c 2,18,-1
 231 463 l 2,19,20
 231 406 231 406 217 378.5 c 128,-1,21
 203 351 203 351 167 338 c 1,22,23
 203 325 203 325 217 298 c 128,-1,24
 231 271 231 271 231 214 c 2,25,-1
 231 41 l 2,26,27
 231 13 231 13 243 1 c 128,-1,28
 255 -11 255 -11 282 -11 c 2,29,-1
 333 -11 l 1,30,-1
 333 -86 l 1,31,-1
 258 -86 l 2,32,0
 143 -86 143 -86 143 32 c 2,1,-1
EndSplineSet
Validated: 1
Substitution2: "'rtla' Right to Left Alternates lookup 0 subtable" braceright
EndChar

StartChar: bar
Encoding: 124 124 96
Width: 296
GlyphClass: 2
Flags: W
LayerCount: 2
Fore
SplineSet
106 758 m 1,0,-1
 190 758 l 1,1,-1
 190 -85 l 1,2,-1
 106 -85 l 1,3,-1
 106 758 l 1,0,-1
EndSplineSet
Validated: 1
EndChar

StartChar: braceright
Encoding: 125 125 97
Width: 386
GlyphClass: 2
Flags: W
LayerCount: 2
Fore
SplineSet
53 -11 m 1,0,-1
 104 -11 l 2,1,2
 131 -11 131 -11 143 1 c 128,-1,3
 155 13 155 13 155 41 c 2,4,-1
 155 214 l 2,5,6
 155 271 155 271 169 298 c 128,-1,7
 183 325 183 325 219 338 c 1,8,9
 183 351 183 351 169 378.5 c 128,-1,10
 155 406 155 406 155 463 c 2,11,-1
 155 631 l 2,12,13
 155 659 155 659 143 671 c 128,-1,14
 131 683 131 683 104 683 c 2,15,-1
 53 683 l 1,16,-1
 53 758 l 1,17,-1
 127 758 l 2,18,19
 184 758 184 758 213 728.5 c 128,-1,20
 242 699 242 699 242 640 c 2,21,-1
 242 460 l 2,22,23
 242 416 242 416 261.5 397.5 c 128,-1,24
 281 379 281 379 333 378 c 1,25,-1
 333 299 l 1,26,27
 281 298 281 298 261.5 279.5 c 128,-1,28
 242 261 242 261 242 216 c 2,29,-1
 242 32 l 2,30,31
 242 -27 242 -27 213 -56.5 c 128,-1,32
 184 -86 184 -86 127 -86 c 2,33,-1
 53 -86 l 1,34,-1
 53 -11 l 1,0,-1
EndSplineSet
Validated: 1
Substitution2: "'rtla' Right to Left Alternates lookup 0 subtable" braceleft
EndChar

StartChar: asciitilde
Encoding: 126 126 98
Width: 521
GlyphClass: 2
Flags: W
LayerCount: 2
Fore
SplineSet
44 251 m 1,0,1
 67 300 67 300 101 325 c 128,-1,2
 135 350 135 350 177 350 c 0,3,4
 204 350 204 350 225.5 341 c 128,-1,5
 247 332 247 332 272 315 c 0,6,7
 298 301 298 301 312 295 c 128,-1,8
 326 289 326 289 341 289 c 0,9,10
 365 289 365 289 381.5 302 c 128,-1,11
 398 315 398 315 417 349 c 1,12,-1
 476 312 l 1,13,14
 453 263 453 263 418.5 237.5 c 128,-1,15
 384 212 384 212 342 212 c 0,16,17
 316 212 316 212 295 220.5 c 128,-1,18
 274 229 274 229 247 247 c 0,19,20
 225 261 225 261 210 267.5 c 128,-1,21
 195 274 195 274 179 274 c 0,22,23
 155 274 155 274 139 261.5 c 128,-1,24
 123 249 123 249 104 215 c 1,25,-1
 44 251 l 1,0,1
EndSplineSet
Validated: 1
EndChar

StartChar: exclamdown
Encoding: 161 161 100
Width: 244
GlyphClass: 2
Flags: W
LayerCount: 2
Fore
SplineSet
71 524 m 1,0,-1
 175 524 l 1,1,-1
 175 416 l 1,2,-1
 71 416 l 1,3,-1
 71 524 l 1,0,-1
89 313 m 1,4,-1
 157 313 l 1,5,-1
 174 -157 l 1,6,-1
 71 -157 l 1,7,-1
 89 313 l 1,4,-1
EndSplineSet
Validated: 1
EndChar

StartChar: cent
Encoding: 162 162 101
Width: 566
GlyphClass: 2
Flags: W
LayerCount: 2
Fore
SplineSet
428 339 m 1,0,-1
 428 344 l 2,1,2
 428 391 428 391 401 420 c 128,-1,3
 374 449 374 449 324 455 c 1,4,-1
 324 70 l 1,5,6
 374 76 374 76 401 104.5 c 128,-1,7
 428 133 428 133 428 179 c 2,8,-1
 428 183 l 1,9,-1
 513 183 l 1,10,-1
 513 179 l 2,11,12
 513 98 513 98 463.5 48.5 c 128,-1,13
 414 -1 414 -1 324 -8 c 1,14,-1
 324 -102 l 1,15,-1
 261 -102 l 1,16,-1
 261 -8 l 1,17,18
 163 1 163 1 108 63.5 c 128,-1,19
 53 126 53 126 53 237 c 2,20,-1
 53 289 l 2,21,22
 53 400 53 400 108 462 c 128,-1,23
 163 524 163 524 261 534 c 1,24,-1
 261 626 l 1,25,-1
 324 626 l 1,26,-1
 324 534 l 1,27,28
 414 527 414 527 463.5 476.5 c 128,-1,29
 513 426 513 426 513 344 c 2,30,-1
 513 339 l 1,31,-1
 428 339 l 1,0,-1
261 70 m 1,33,-1
 261 455 l 1,34,35
 140 438 140 438 140 287 c 2,36,-1
 140 239 l 2,37,32
 140 87 140 87 261 70 c 1,33,-1
EndSplineSet
Validated: 1
EndChar

StartChar: sterling
Encoding: 163 163 102
Width: 513
GlyphClass: 2
Flags: W
LayerCount: 2
Fore
SplineSet
482 84 m 1,0,-1
 482 0 l 1,1,-1
 55 0 l 1,2,-1
 55 79 l 1,3,4
 84 92 84 92 96.5 115.5 c 128,-1,5
 109 139 109 139 109 180 c 2,6,-1
 109 294 l 1,7,-1
 32 294 l 1,8,-1
 32 376 l 1,9,-1
 109 376 l 1,10,-1
 109 514 l 2,11,12
 109 612 109 612 157 664.5 c 128,-1,13
 205 717 205 717 297 717 c 0,14,15
 385 717 385 717 432 672.5 c 128,-1,16
 479 628 479 628 479 545 c 1,17,-1
 390 545 l 1,18,19
 390 591 390 591 367 613 c 128,-1,20
 344 635 344 635 296 635 c 0,21,22
 202 635 202 635 202 526 c 2,23,-1
 202 376 l 1,24,-1
 376 376 l 1,25,-1
 376 294 l 1,26,-1
 202 294 l 1,27,-1
 202 190 l 2,28,29
 202 154 202 154 192.5 128.5 c 128,-1,30
 183 103 183 103 164 84 c 1,31,-1
 482 84 l 1,0,-1
EndSplineSet
Validated: 1
EndChar

StartChar: currency
Encoding: 164 164 103
Width: 620
GlyphClass: 2
Flags: W
LayerCount: 2
Fore
SplineSet
423 161 m 1,0,1
 373 127 373 127 309 127 c 256,2,3
 246 127 246 127 196 161 c 1,4,-1
 125 91 l 1,5,-1
 69 148 l 1,6,-1
 138 218 l 1,7,8
 105 269 105 269 105 331 c 0,9,10
 105 396 105 396 139 443 c 1,11,-1
 69 515 l 1,12,-1
 125 571 l 1,13,-1
 196 502 l 1,14,15
 247 535 247 535 309 535 c 0,16,17
 372 535 372 535 422 502 c 1,18,-1
 494 571 l 1,19,-1
 550 515 l 1,20,-1
 479 444 l 1,21,22
 514 393 514 393 514 331 c 256,23,24
 514 269 514 269 480 218 c 1,25,-1
 551 147 l 1,26,-1
 495 90 l 1,27,-1
 423 161 l 1,0,1
400 238.5 m 128,-1,29
 435 275 435 275 435 331 c 256,30,31
 435 386 435 386 400 423 c 128,-1,32
 365 460 365 460 309 460 c 0,33,34
 255 460 255 460 219 423 c 128,-1,35
 183 386 183 386 183 331 c 256,36,37
 183 276 183 276 219 239 c 128,-1,38
 255 202 255 202 309 202 c 0,39,28
 365 202 365 202 400 238.5 c 128,-1,29
EndSplineSet
Validated: 1
EndChar

StartChar: yen
Encoding: 165 165 104
Width: 544
GlyphClass: 2
Flags: W
LayerCount: 2
Fore
SplineSet
226 146 m 1,0,-1
 59 146 l 1,1,-1
 59 214 l 1,2,-1
 226 214 l 1,3,-1
 226 278 l 1,4,-1
 59 278 l 1,5,-1
 59 346 l 1,6,-1
 205 346 l 1,7,-1
 9 707 l 1,8,-1
 112 707 l 1,9,-1
 273 388 l 1,10,-1
 433 707 l 1,11,-1
 536 707 l 1,12,-1
 341 346 l 1,13,-1
 487 346 l 1,14,-1
 487 278 l 1,15,-1
 319 278 l 1,16,-1
 319 214 l 1,17,-1
 487 214 l 1,18,-1
 487 146 l 1,19,-1
 319 146 l 1,20,-1
 319 0 l 1,21,-1
 226 0 l 1,22,-1
 226 146 l 1,0,-1
EndSplineSet
Validated: 1
EndChar

StartChar: brokenbar
Encoding: 166 166 105
Width: 296
GlyphClass: 2
Flags: W
LayerCount: 2
Fore
SplineSet
106 742 m 1,0,-1
 190 742 l 1,1,-1
 190 382 l 1,2,-1
 106 382 l 1,3,-1
 106 742 l 1,0,-1
106 292 m 1,4,-1
 190 292 l 1,5,-1
 190 -70 l 1,6,-1
 106 -70 l 1,7,-1
 106 292 l 1,4,-1
EndSplineSet
Validated: 1
EndChar

StartChar: section
Encoding: 167 167 106
Width: 572
GlyphClass: 2
Flags: W
LayerCount: 2
Fore
SplineSet
139 -127.5 m 128,-1,1
 89 -83 89 -83 89 -1 c 1,2,-1
 173 -1 l 1,3,4
 173 -95 173 -95 284 -95 c 0,5,6
 337 -95 337 -95 364 -74 c 128,-1,7
 391 -53 391 -53 391 -12 c 0,8,9
 391 35 391 35 356 56.5 c 128,-1,10
 321 78 321 78 239 95 c 0,11,12
 74 133 74 133 74 279 c 0,13,14
 74 339 74 339 102.5 381.5 c 128,-1,15
 131 424 131 424 187 443 c 1,16,17
 140 462 140 462 119.5 495 c 128,-1,18
 99 528 99 528 99 574 c 0,19,20
 99 646 99 646 150.5 688.5 c 128,-1,21
 202 731 202 731 290 731 c 0,22,23
 381 731 381 731 429 687.5 c 128,-1,24
 477 644 477 644 477 566 c 1,25,-1
 393 566 l 1,26,27
 393 654 393 654 289 654 c 0,28,29
 240 654 240 654 213.5 633.5 c 128,-1,30
 187 613 187 613 187 574 c 0,31,32
 187 542 187 542 203.5 523 c 128,-1,33
 220 504 220 504 251 492 c 128,-1,34
 282 480 282 480 336 469 c 0,35,36
 406 453 406 453 452.5 411.5 c 128,-1,37
 499 370 499 370 499 286 c 0,38,39
 499 224 499 224 470 181.5 c 128,-1,40
 441 139 441 139 388 122 c 1,41,42
 434 103 434 103 456.5 70 c 128,-1,43
 479 37 479 37 479 -13 c 0,44,45
 479 -88 479 -88 426.5 -130 c 128,-1,46
 374 -172 374 -172 284 -172 c 0,47,0
 189 -172 189 -172 139 -127.5 c 128,-1,1
379 199.5 m 128,-1,49
 411 228 411 228 411 282 c 0,50,51
 411 336 411 336 379 364.5 c 128,-1,52
 347 393 347 393 287 393 c 0,53,54
 226 393 226 393 194 364.5 c 128,-1,55
 162 336 162 336 162 282 c 256,56,57
 162 228 162 228 193.5 199.5 c 128,-1,58
 225 171 225 171 287 171 c 0,59,48
 347 171 347 171 379 199.5 c 128,-1,49
EndSplineSet
Validated: 1
EndChar

StartChar: dieresis
Encoding: 168 168 107
Width: 512
GlyphClass: 2
Flags: W
LayerCount: 2
Fore
SplineSet
102 692 m 1,0,-1
 189 692 l 1,1,-1
 189 595 l 1,2,-1
 102 595 l 1,3,-1
 102 692 l 1,0,-1
323 692 m 1,4,-1
 409 692 l 1,5,-1
 409 595 l 1,6,-1
 323 595 l 1,7,-1
 323 692 l 1,4,-1
EndSplineSet
Validated: 1
EndChar

StartChar: copyright
Encoding: 169 169 108
Width: 822
GlyphClass: 2
Flags: W
LayerCount: 2
Fore
SplineSet
229.5 36 m 128,-1,1
 150 81 150 81 106 162.5 c 128,-1,2
 62 244 62 244 62 349 c 256,3,4
 62 454 62 454 106 535.5 c 128,-1,5
 150 617 150 617 229.5 662.5 c 128,-1,6
 309 708 309 708 413 708 c 256,7,8
 516 708 516 708 595.5 662.5 c 128,-1,9
 675 617 675 617 718.5 536 c 128,-1,10
 762 455 762 455 762 349 c 0,11,12
 762 243 762 243 718.5 162 c 128,-1,13
 675 81 675 81 595.5 36 c 128,-1,14
 516 -9 516 -9 413 -9 c 256,15,0
 309 -9 309 -9 229.5 36 c 128,-1,1
563 88 m 128,-1,17
 627 125 627 125 661.5 192.5 c 128,-1,18
 696 260 696 260 696 349 c 256,19,20
 696 438 696 438 661.5 505.5 c 128,-1,21
 627 573 627 573 563 609.5 c 128,-1,22
 499 646 499 646 413 646 c 256,23,24
 327 646 327 646 262.5 609.5 c 128,-1,25
 198 573 198 573 163 505.5 c 128,-1,26
 128 438 128 438 128 349 c 0,27,28
 128 259 128 259 163 192 c 128,-1,29
 198 125 198 125 262.5 88 c 128,-1,30
 327 51 327 51 413 51 c 256,31,16
 499 51 499 51 563 88 c 128,-1,17
287.5 197.5 m 128,-1,33
 240 243 240 243 240 330 c 2,34,-1
 240 372 l 2,35,36
 240 458 240 458 287.5 504 c 128,-1,37
 335 550 335 550 416 550 c 0,38,39
 492 550 492 550 535.5 514 c 128,-1,40
 579 478 579 478 579 417 c 2,41,-1
 579 413 l 1,42,-1
 511 413 l 1,43,-1
 511 416 l 2,44,45
 511 452 511 452 486 471 c 128,-1,46
 461 490 461 490 417 490 c 0,47,48
 365 490 365 490 336.5 460.5 c 128,-1,49
 308 431 308 431 308 370 c 2,50,-1
 308 332 l 2,51,52
 308 210 308 210 418 210 c 0,53,54
 462 210 462 210 486.5 229.5 c 128,-1,55
 511 249 511 249 511 285 c 2,56,-1
 511 289 l 1,57,-1
 578 289 l 1,58,-1
 578 285 l 2,59,60
 578 224 578 224 534 188 c 128,-1,61
 490 152 490 152 416 152 c 0,62,32
 335 152 335 152 287.5 197.5 c 128,-1,33
EndSplineSet
Validated: 1
EndChar

StartChar: ordfeminine
Encoding: 170 170 109
Width: 391
GlyphClass: 2
Flags: W
LayerCount: 2
Fore
SplineSet
335 647 m 2,1,-1
 335 440 l 1,2,-1
 265 440 l 1,3,-1
 265 474 l 1,4,5
 227 436 227 436 163 436 c 0,6,7
 106 436 106 436 75 462 c 128,-1,8
 44 488 44 488 44 535 c 0,9,10
 44 582 44 582 77 606 c 128,-1,11
 110 630 110 630 172 630 c 2,12,-1
 262 630 l 1,13,-1
 262 651 l 2,14,15
 262 681 262 681 244 695.5 c 128,-1,16
 226 710 226 710 189 710 c 0,17,18
 156 710 156 710 139 699 c 128,-1,19
 122 688 122 688 122 669 c 2,20,-1
 122 667 l 1,21,-1
 54 667 l 1,22,-1
 54 669 l 2,23,24
 54 715 54 715 90 740.5 c 128,-1,25
 126 766 126 766 193 766 c 0,26,0
 335 766 335 766 335 647 c 2,1,-1
242 512.5 m 128,-1,28
 262 529 262 529 262 565 c 2,29,-1
 262 580 l 1,30,-1
 182 580 l 2,31,32
 147 580 147 580 131 569.5 c 128,-1,33
 115 559 115 559 115 538 c 0,34,35
 115 496 115 496 179 496 c 0,36,27
 222 496 222 496 242 512.5 c 128,-1,28
8 717 m 1024,37,-1
EndSplineSet
Validated: 1
EndChar

StartChar: guillemotleft
Encoding: 171 171 110
Width: 565
GlyphClass: 2
Flags: W
LayerCount: 2
Fore
SplineSet
24 270 m 1,0,-1
 262 480 l 1,1,-1
 262 387 l 1,2,-1
 127 270 l 1,3,-1
 262 154 l 1,4,-1
 262 60 l 1,5,-1
 24 270 l 1,0,-1
258 270 m 1,6,-1
 497 480 l 1,7,-1
 497 387 l 1,8,-1
 361 270 l 1,9,-1
 497 154 l 1,10,-1
 497 60 l 1,11,-1
 258 270 l 1,6,-1
EndSplineSet
Validated: 1
EndChar

StartChar: logicalnot
Encoding: 172 172 111
Width: 521
GlyphClass: 2
Flags: W
LayerCount: 2
Fore
SplineSet
379 267 m 1,0,-1
 54 267 l 1,1,-1
 54 346 l 1,2,-1
 467 346 l 1,3,-1
 467 132 l 1,4,-1
 379 132 l 1,5,-1
 379 267 l 1,0,-1
EndSplineSet
Validated: 1
EndChar

StartChar: registered
Encoding: 174 174 113
Width: 531
GlyphClass: 2
Flags: W
LayerCount: 2
Fore
SplineSet
166.5 340 m 128,-1,1
 123 366 123 366 98.5 410.5 c 128,-1,2
 74 455 74 455 74 511 c 0,3,4
 74 566 74 566 98.5 610.5 c 128,-1,5
 123 655 123 655 167 681 c 128,-1,6
 211 707 211 707 265 707 c 0,7,8
 320 707 320 707 364 681 c 128,-1,9
 408 655 408 655 433 610.5 c 128,-1,10
 458 566 458 566 458 511 c 0,11,12
 458 455 458 455 433.5 410.5 c 128,-1,13
 409 366 409 366 365 340 c 128,-1,14
 321 314 321 314 265 314 c 256,15,0
 210 314 210 314 166.5 340 c 128,-1,1
377.5 394 m 128,-1,17
 421 439 421 439 421 511 c 0,18,19
 421 582 421 582 377 627 c 128,-1,20
 333 672 333 672 265 672 c 0,21,22
 196 672 196 672 154 627 c 128,-1,23
 112 582 112 582 112 511 c 0,24,25
 112 439 112 439 154.5 394 c 128,-1,26
 197 349 197 349 265 349 c 256,27,16
 334 349 334 349 377.5 394 c 128,-1,17
193 622 m 1,28,-1
 276 622 l 2,29,30
 311 622 311 622 330 605 c 128,-1,31
 349 588 349 588 349 556 c 0,32,33
 349 512 349 512 311 496 c 1,34,-1
 354 402 l 1,35,-1
 310 402 l 1,36,-1
 269 490 l 1,37,-1
 234 490 l 1,38,-1
 234 402 l 1,39,-1
 193 402 l 1,40,-1
 193 622 l 1,28,-1
274 526 m 2,41,42
 308 526 308 526 308 556 c 0,43,44
 308 585 308 585 274 585 c 2,45,-1
 234 585 l 1,46,-1
 234 526 l 1,47,-1
 274 526 l 2,41,42
EndSplineSet
Validated: 1
EndChar

StartChar: macron
Encoding: 175 175 114
Width: 512
GlyphClass: 2
Flags: W
LayerCount: 2
Fore
SplineSet
100 683 m 1,0,-1
 413 683 l 1,1,-1
 413 604 l 1,2,-1
 100 604 l 1,3,-1
 100 683 l 1,0,-1
EndSplineSet
Validated: 1
EndChar

StartChar: degree
Encoding: 176 176 115
Width: 410
GlyphClass: 2
Flags: W
LayerCount: 2
Fore
SplineSet
103 470.5 m 128,-1,1
 62 512 62 512 62 573 c 256,2,3
 62 634 62 634 103 675.5 c 128,-1,4
 144 717 144 717 207 717 c 0,5,6
 267 717 267 717 308.5 676 c 128,-1,7
 350 635 350 635 350 573 c 0,8,9
 350 533 350 533 331 500 c 128,-1,10
 312 467 312 467 279.5 448 c 128,-1,11
 247 429 247 429 207 429 c 0,12,0
 144 429 144 429 103 470.5 c 128,-1,1
266.5 512 m 128,-1,14
 290 537 290 537 290 573 c 0,15,16
 290 611 290 611 266.5 635.5 c 128,-1,17
 243 660 243 660 207 660 c 0,18,19
 170 660 170 660 146.5 635.5 c 128,-1,20
 123 611 123 611 123 573 c 0,21,22
 123 536 123 536 146.5 511.5 c 128,-1,23
 170 487 170 487 207 487 c 0,24,13
 243 487 243 487 266.5 512 c 128,-1,14
EndSplineSet
Validated: 1
EndChar

StartChar: plusminus
Encoding: 177 177 116
Width: 521
GlyphClass: 2
Flags: W
LayerCount: 2
Fore
SplineSet
219 287 m 1,0,-1
 54 287 l 1,1,-1
 54 370 l 1,2,-1
 219 370 l 1,3,-1
 219 535 l 1,4,-1
 302 535 l 1,5,-1
 302 370 l 1,6,-1
 467 370 l 1,7,-1
 467 287 l 1,8,-1
 302 287 l 1,9,-1
 302 122 l 1,10,-1
 219 122 l 1,11,-1
 219 287 l 1,0,-1
54 72 m 1,12,-1
 467 72 l 1,13,-1
 467 -11 l 1,14,-1
 54 -11 l 1,15,-1
 54 72 l 1,12,-1
EndSplineSet
Validated: 1
EndChar

StartChar: uni00B2
Encoding: 178 178 117
Width: 384
GlyphClass: 2
Flags: W
LayerCount: 2
Fore
SplineSet
52 502 m 1,0,-1
 215 672 l 2,1,2
 235 692 235 692 244.5 709 c 128,-1,3
 254 726 254 726 254 745 c 2,4,-1
 254 752 l 2,5,6
 254 780 254 780 238 794.5 c 128,-1,7
 222 809 222 809 190 809 c 256,8,9
 158 809 158 809 141.5 794 c 128,-1,10
 125 779 125 779 125 751 c 2,11,-1
 125 743 l 1,12,-1
 48 743 l 1,13,-1
 48 753 l 2,14,15
 48 810 48 810 86.5 842 c 128,-1,16
 125 874 125 874 193 874 c 0,17,18
 260 874 260 874 297 842 c 128,-1,19
 334 810 334 810 334 755 c 2,20,-1
 334 746 l 2,21,22
 334 712 334 712 319.5 684.5 c 128,-1,23
 305 657 305 657 272 626 c 2,24,-1
 163 509 l 1,25,-1
 336 509 l 1,26,-1
 336 440 l 1,27,-1
 52 440 l 1,28,-1
 52 502 l 1,0,-1
EndSplineSet
Validated: 1
EndChar

StartChar: uni00B3
Encoding: 179 179 118
Width: 381
GlyphClass: 2
Flags: W
LayerCount: 2
Fore
SplineSet
84 464.5 m 128,-1,1
 47 495 47 495 47 550 c 2,2,-1
 47 558 l 1,3,-1
 118 558 l 1,4,-1
 118 552 l 2,5,6
 118 499 118 499 187 499 c 256,7,8
 257 499 257 499 257 557 c 2,9,-1
 257 565 l 2,10,11
 257 597 257 597 238.5 612.5 c 128,-1,12
 220 628 220 628 181 628 c 2,13,-1
 157 628 l 1,14,-1
 157 694 l 1,15,-1
 181 694 l 2,16,17
 250 694 250 694 250 749 c 2,18,-1
 250 756 l 2,19,20
 250 809 250 809 185 809 c 0,21,22
 153 809 153 809 136.5 795.5 c 128,-1,23
 120 782 120 782 120 758 c 2,24,-1
 120 751 l 1,25,-1
 49 751 l 1,26,-1
 49 758 l 2,27,28
 49 813 49 813 86 843.5 c 128,-1,29
 123 874 123 874 188 874 c 256,30,31
 254 874 254 874 290.5 844.5 c 128,-1,32
 327 815 327 815 327 764 c 2,33,-1
 327 756 l 2,34,35
 327 693 327 693 267 667 c 1,36,37
 334 642 334 642 334 566 c 2,38,-1
 334 557 l 2,39,40
 334 500 334 500 295 467 c 128,-1,41
 256 434 256 434 188 434 c 256,42,0
 121 434 121 434 84 464.5 c 128,-1,1
EndSplineSet
Validated: 1
EndChar

StartChar: acute
Encoding: 180 180 119
Width: 512
GlyphClass: 2
Flags: W
LayerCount: 2
Fore
SplineSet
274 722 m 1,0,-1
 382 722 l 1,1,-1
 244 591 l 1,2,-1
 163 591 l 1,3,-1
 274 722 l 1,0,-1
EndSplineSet
Validated: 1
EndChar

StartChar: uni00B5
Encoding: 181 181 120
Width: 584
GlyphClass: 2
Flags: W
LayerCount: 2
Fore
SplineSet
69 524 m 1,0,-1
 156 524 l 1,1,-1
 156 204 l 2,2,3
 156 139 156 139 191 105 c 128,-1,4
 226 71 226 71 289 71 c 0,5,6
 355 71 355 71 391.5 110.5 c 128,-1,7
 428 150 428 150 428 221 c 2,8,-1
 428 524 l 1,9,-1
 516 524 l 1,10,-1
 516 0 l 1,11,-1
 430 0 l 1,12,-1
 430 68 l 1,13,14
 377 -6 377 -6 276 -6 c 0,15,16
 196 -6 196 -6 156 34 c 1,17,-1
 156 -157 l 1,18,-1
 69 -157 l 1,19,-1
 69 524 l 1,0,-1
EndSplineSet
Validated: 1
EndChar

StartChar: paragraph
Encoding: 182 182 121
Width: 697
GlyphClass: 2
Flags: W
LayerCount: 2
Fore
SplineSet
333 275 m 1,0,-1
 331 275 l 2,1,2
 207 275 207 275 140.5 331.5 c 128,-1,3
 74 388 74 388 74 490 c 0,4,5
 74 593 74 593 138 650 c 128,-1,6
 202 707 202 707 316 707 c 2,7,-1
 587 707 l 1,8,-1
 587 -157 l 1,9,-1
 505 -157 l 1,10,-1
 505 629 l 1,11,-1
 415 629 l 1,12,-1
 415 -157 l 1,13,-1
 333 -157 l 1,14,-1
 333 275 l 1,0,-1
EndSplineSet
Validated: 1
EndChar

StartChar: cedilla
Encoding: 184 184 123
Width: 512
GlyphClass: 2
Flags: W
LayerCount: 2
Fore
SplineSet
253 12 m 1,0,-1
 328 12 l 1,1,-1
 254 -156 l 1,2,-1
 166 -156 l 1,3,-1
 253 12 l 1,0,-1
EndSplineSet
Validated: 1
EndChar

StartChar: uni00B9
Encoding: 185 185 124
Width: 271
GlyphClass: 2
Flags: W
LayerCount: 2
Fore
SplineSet
127 785 m 1,0,-1
 40 731 l 1,1,-1
 40 814 l 1,2,-1
 127 867 l 1,3,-1
 207 867 l 1,4,-1
 207 440 l 1,5,-1
 127 440 l 1,6,-1
 127 785 l 1,0,-1
EndSplineSet
Validated: 1
EndChar

StartChar: ordmasculine
Encoding: 186 186 125
Width: 391
GlyphClass: 2
Flags: W
LayerCount: 2
Fore
SplineSet
86 474 m 128,-1,1
 47 512 47 512 47 584 c 2,2,-1
 47 620 l 2,3,4
 47 691 47 691 86.5 728.5 c 128,-1,5
 126 766 126 766 196 766 c 256,6,7
 266 766 266 766 305.5 728 c 128,-1,8
 345 690 345 690 345 620 c 2,9,-1
 345 584 l 2,10,11
 345 512 345 512 305.5 474 c 128,-1,12
 266 436 266 436 196 436 c 256,13,0
 125 436 125 436 86 474 c 128,-1,1
251.5 522.5 m 128,-1,15
 271 543 271 543 271 584 c 2,16,-1
 271 620 l 2,17,18
 271 660 271 660 251.5 680 c 128,-1,19
 232 700 232 700 196 700 c 256,20,21
 159 700 159 700 139.5 679.5 c 128,-1,22
 120 659 120 659 120 620 c 2,23,-1
 120 584 l 2,24,25
 120 543 120 543 139.5 522.5 c 128,-1,26
 159 502 159 502 196 502 c 256,27,14
 232 502 232 502 251.5 522.5 c 128,-1,15
5 717 m 1024,28,-1
EndSplineSet
Validated: 1
EndChar

StartChar: guillemotright
Encoding: 187 187 126
Width: 565
GlyphClass: 2
Flags: W
LayerCount: 2
Fore
SplineSet
69 154 m 1,0,-1
 204 270 l 1,1,-1
 69 387 l 1,2,-1
 69 480 l 1,3,-1
 308 270 l 1,4,-1
 69 60 l 1,5,-1
 69 154 l 1,0,-1
303 154 m 1,6,-1
 438 270 l 1,7,-1
 303 387 l 1,8,-1
 303 480 l 1,9,-1
 543 270 l 1,10,-1
 303 60 l 1,11,-1
 303 154 l 1,6,-1
EndSplineSet
Validated: 1
EndChar

StartChar: onequarter
Encoding: 188 188 127
Width: 825
GlyphClass: 3
Flags: W
LayerCount: 2
Fore
SplineSet
602 709 m 1,0,-1
 212 0 l 1,1,-1
 137 0 l 1,2,-1
 526 709 l 1,3,-1
 602 709 l 1,0,-1
117 280 m 1,4,-1
 117 624 l 1,5,-1
 29 569 l 1,6,-1
 29 653 l 1,7,-1
 117 707 l 1,8,-1
 197 707 l 1,9,-1
 197 280 l 1,10,-1
 117 280 l 1,4,-1
788 72 m 1,11,-1
 746 72 l 1,12,-1
 746 0 l 1,13,-1
 667 0 l 1,14,-1
 667 72 l 1,15,-1
 469 72 l 1,16,-1
 469 140 l 1,17,-1
 611 427 l 1,18,-1
 691 427 l 1,19,-1
 550 140 l 1,20,-1
 667 140 l 1,21,-1
 667 238 l 1,22,-1
 746 238 l 1,23,-1
 746 140 l 1,24,-1
 788 140 l 1,25,-1
 788 72 l 1,11,-1
EndSplineSet
Validated: 1
Ligature2: "'frac' Diagonal Fractions lookup 2 subtable" one slash four
EndChar

StartChar: onehalf
Encoding: 189 189 128
Width: 836
GlyphClass: 3
Flags: W
LayerCount: 2
Fore
SplineSet
521 709 m 1,0,-1
 597 709 l 1,1,-1
 207 0 l 1,2,-1
 132 0 l 1,3,-1
 521 709 l 1,0,-1
117 624 m 1,4,-1
 29 569 l 1,5,-1
 29 653 l 1,6,-1
 117 707 l 1,7,-1
 197 707 l 1,8,-1
 197 280 l 1,9,-1
 117 280 l 1,10,-1
 117 624 l 1,4,-1
505 61 m 1,11,-1
 668 231 l 2,12,13
 688 251 688 251 697.5 268.5 c 128,-1,14
 707 286 707 286 707 305 c 2,15,-1
 707 311 l 2,16,17
 707 339 707 339 691 354 c 128,-1,18
 675 369 675 369 643 369 c 256,19,20
 611 369 611 369 594.5 354 c 128,-1,21
 578 339 578 339 578 310 c 2,22,-1
 578 303 l 1,23,-1
 501 303 l 1,24,-1
 501 312 l 2,25,26
 501 369 501 369 539.5 401.5 c 128,-1,27
 578 434 578 434 645 434 c 0,28,29
 712 434 712 434 749 402 c 128,-1,30
 786 370 786 370 786 314 c 2,31,-1
 786 306 l 2,32,33
 786 272 786 272 772 244.5 c 128,-1,34
 758 217 758 217 725 185 c 2,35,-1
 615 69 l 1,36,-1
 788 69 l 1,37,-1
 788 0 l 1,38,-1
 505 0 l 1,39,-1
 505 61 l 1,11,-1
EndSplineSet
Validated: 1
Ligature2: "'frac' Diagonal Fractions lookup 2 subtable" one slash two
EndChar

StartChar: threequarters
Encoding: 190 190 129
Width: 930
GlyphClass: 3
Flags: W
LayerCount: 2
Fore
SplineSet
294 305 m 128,-1,1
 255 272 255 272 188 272 c 0,2,3
 119 272 119 272 82.5 303 c 128,-1,4
 46 334 46 334 46 389 c 2,5,-1
 46 396 l 1,6,-1
 117 396 l 1,7,-1
 117 390 l 2,8,9
 117 364 117 364 135 351 c 128,-1,10
 153 338 153 338 186 338 c 0,11,12
 257 338 257 338 257 395 c 2,13,-1
 257 404 l 2,14,15
 257 466 257 466 181 467 c 2,16,-1
 156 467 l 1,17,-1
 156 532 l 1,18,-1
 180 532 l 2,19,20
 250 532 250 532 250 588 c 2,21,-1
 250 595 l 2,22,23
 250 648 250 648 184 648 c 0,24,25
 152 648 152 648 136 635 c 128,-1,26
 120 622 120 622 120 596 c 2,27,-1
 120 590 l 1,28,-1
 48 590 l 1,29,-1
 48 597 l 2,30,31
 48 652 48 652 85 683 c 128,-1,32
 122 714 122 714 187 714 c 256,33,34
 253 714 253 714 290 684 c 128,-1,35
 327 654 327 654 327 602 c 2,36,-1
 327 595 l 2,37,38
 327 532 327 532 267 506 c 1,39,40
 333 482 333 482 333 404 c 2,41,-1
 333 395 l 2,42,0
 333 338 333 338 294 305 c 128,-1,1
708 709 m 1,43,-1
 317 0 l 1,44,-1
 243 0 l 1,45,-1
 632 709 l 1,46,-1
 708 709 l 1,43,-1
894 72 m 1,47,-1
 852 72 l 1,48,-1
 852 0 l 1,49,-1
 772 0 l 1,50,-1
 772 72 l 1,51,-1
 574 72 l 1,52,-1
 574 140 l 1,53,-1
 717 427 l 1,54,-1
 797 427 l 1,55,-1
 655 140 l 1,56,-1
 772 140 l 1,57,-1
 772 238 l 1,58,-1
 852 238 l 1,59,-1
 852 140 l 1,60,-1
 894 140 l 1,61,-1
 894 72 l 1,47,-1
EndSplineSet
Validated: 1
Ligature2: "'frac' Diagonal Fractions lookup 2 subtable" three slash four
EndChar

StartChar: questiondown
Encoding: 191 191 130
Width: 496
GlyphClass: 2
Flags: W
LayerCount: 2
Fore
SplineSet
204 524 m 1,0,-1
 307 524 l 1,1,-1
 307 418 l 1,2,-1
 204 418 l 1,3,-1
 204 524 l 1,0,-1
99 -121 m 128,-1,5
 43 -75 43 -75 43 6 c 0,6,7
 43 49 43 49 58 84.5 c 128,-1,8
 73 120 73 120 106 154 c 2,9,-1
 173 217 l 2,10,11
 196 239 196 239 203.5 257.5 c 128,-1,12
 211 276 211 276 211 308 c 2,13,-1
 211 338 l 1,14,-1
 301 338 l 1,15,-1
 301 304 l 2,16,17
 301 257 301 257 290 229 c 128,-1,18
 279 201 279 201 245 169 c 2,19,-1
 187 116 l 2,20,21
 158 88 158 88 146.5 64.5 c 128,-1,22
 135 41 135 41 135 10 c 0,23,24
 135 -36 135 -36 166 -60.5 c 128,-1,25
 197 -85 197 -85 255 -85 c 0,26,27
 373 -85 373 -85 373 24 c 1,28,-1
 462 24 l 1,29,30
 460 -68 460 -68 406 -117.5 c 128,-1,31
 352 -167 352 -167 253 -167 c 0,32,4
 155 -167 155 -167 99 -121 c 128,-1,5
EndSplineSet
Validated: 1
EndChar

StartChar: Aring
Encoding: 197 197 136
Width: 681
GlyphClass: 2
Flags: W
LayerCount: 2
Fore
SplineSet
513 160 m 1,0,-1
 167 160 l 1,1,-1
 103 0 l 1,2,-1
 6 0 l 1,3,-1
 300 706 l 1,4,5
 274 717 274 717 259.5 740 c 128,-1,6
 245 763 245 763 245 794 c 0,7,8
 245 836 245 836 272 863.5 c 128,-1,9
 299 891 299 891 341 891 c 0,10,11
 382 891 382 891 409.5 863.5 c 128,-1,12
 437 836 437 836 437 794 c 0,13,14
 437 763 437 763 422 740 c 128,-1,15
 407 717 407 717 381 706 c 1,16,-1
 676 0 l 1,17,-1
 578 0 l 1,18,-1
 513 160 l 1,0,-1
304 832 m 128,-1,20
 290 817 290 817 290 794 c 0,21,22
 290 771 290 771 304 755.5 c 128,-1,23
 318 740 318 740 341 740 c 256,24,25
 364 740 364 740 378 755.5 c 128,-1,26
 392 771 392 771 392 794 c 0,27,28
 392 818 392 818 378 832.5 c 128,-1,29
 364 847 364 847 341 847 c 256,30,19
 318 847 318 847 304 832 c 128,-1,20
481 239 m 1,31,-1
 340 592 l 1,32,-1
 199 239 l 1,33,-1
 481 239 l 1,31,-1
EndSplineSet
Validated: 1
EndChar

StartChar: AE
Encoding: 198 198 137
Width: 1024
GlyphClass: 2
Flags: W
LayerCount: 2
Fore
SplineSet
586 624 m 1,0,-1
 586 400 l 1,1,-1
 924 400 l 1,2,-1
 924 317 l 1,3,-1
 586 317 l 1,4,-1
 586 83 l 1,5,-1
 980 83 l 1,6,-1
 980 0 l 1,7,-1
 493 0 l 1,8,-1
 493 165 l 1,9,-1
 210 165 l 1,10,-1
 110 0 l 1,11,-1
 6 0 l 1,12,-1
 441 707 l 1,13,-1
 980 707 l 1,14,-1
 980 624 l 1,15,-1
 586 624 l 1,0,-1
493 244 m 1,16,-1
 493 629 l 1,17,-1
 258 244 l 1,18,-1
 493 244 l 1,16,-1
EndSplineSet
Validated: 1
EndChar

StartChar: Ccedilla
Encoding: 199 199 138
Width: 696
GlyphClass: 2
Flags: W
LayerCount: 2
Fore
SplineSet
543 486 m 1,0,-1
 543 490 l 2,1,2
 543 559 543 559 495 596 c 128,-1,3
 447 633 447 633 359 633 c 0,4,5
 256 633 256 633 206 576.5 c 128,-1,6
 156 520 156 520 156 400 c 2,7,-1
 156 301 l 2,8,9
 156 185 156 185 206.5 130 c 128,-1,10
 257 75 257 75 360 75 c 0,11,12
 448 75 448 75 495.5 111.5 c 128,-1,13
 543 148 543 148 543 218 c 2,14,-1
 543 222 l 1,15,-1
 635 222 l 1,16,-1
 635 217 l 2,17,18
 635 125 635 125 578.5 67 c 128,-1,19
 522 9 522 9 422 -5 c 1,20,-1
 355 -156 l 1,21,-1
 267 -156 l 1,22,-1
 343 -9 l 1,23,24
 209 -4 209 -4 135.5 74 c 128,-1,25
 62 152 62 152 62 302 c 2,26,-1
 62 406 l 2,27,28
 62 561 62 561 140 639 c 128,-1,29
 218 717 218 717 360 717 c 0,30,31
 488 717 488 717 562 657.5 c 128,-1,32
 636 598 636 598 636 492 c 2,33,-1
 636 486 l 1,34,-1
 543 486 l 1,0,-1
EndSplineSet
Validated: 1
EndChar

StartChar: Eth
Encoding: 208 208 147
Width: 742
GlyphClass: 2
Flags: W
LayerCount: 2
Fore
SplineSet
605 630 m 128,-1,1
 682 553 682 553 682 400 c 2,2,-1
 682 307 l 2,3,4
 682 154 682 154 604.5 77 c 128,-1,5
 527 0 527 0 385 0 c 2,6,-1
 126 0 l 1,7,-1
 126 317 l 1,8,-1
 35 317 l 1,9,-1
 35 400 l 1,10,-1
 126 400 l 1,11,-1
 126 707 l 1,12,-1
 387 707 l 2,13,0
 528 707 528 707 605 630 c 128,-1,1
589 395 m 2,14,15
 589 512 589 512 539 568 c 128,-1,16
 489 624 489 624 387 624 c 2,17,-1
 219 624 l 1,18,-1
 219 400 l 1,19,-1
 393 400 l 1,20,-1
 393 317 l 1,21,-1
 219 317 l 1,22,-1
 219 83 l 1,23,-1
 387 83 l 2,24,25
 489 83 489 83 539 137 c 128,-1,26
 589 191 589 191 589 305 c 2,27,-1
 589 395 l 2,14,15
EndSplineSet
Validated: 1
EndChar

StartChar: multiply
Encoding: 215 215 154
Width: 521
GlyphClass: 2
Flags: W
LayerCount: 2
Fore
SplineSet
83 160 m 1,0,-1
 206 284 l 1,1,-1
 83 407 l 1,2,-1
 138 462 l 1,3,-1
 261 339 l 1,4,-1
 384 462 l 1,5,-1
 439 407 l 1,6,-1
 316 284 l 1,7,-1
 439 160 l 1,8,-1
 384 104 l 1,9,-1
 261 227 l 1,10,-1
 138 104 l 1,11,-1
 83 160 l 1,0,-1
EndSplineSet
Validated: 1
EndChar

StartChar: Oslash
Encoding: 216 216 155
Width: 711
GlyphClass: 2
Flags: W
LayerCount: 2
Fore
SplineSet
651 406 m 2,1,-1
 651 302 l 2,2,3
 651 147 651 147 574 69 c 128,-1,4
 497 -9 497 -9 355 -9 c 0,5,6
 252 -9 252 -9 182 34 c 1,7,-1
 146 -20 l 1,8,-1
 73 -20 l 1,9,-1
 134 74 l 1,10,11
 62 154 62 154 62 302 c 2,12,-1
 62 406 l 2,13,14
 62 561 62 561 139.5 639 c 128,-1,15
 217 717 217 717 358 717 c 0,16,17
 462 717 462 717 531 674 c 1,18,-1
 567 729 l 1,19,-1
 640 729 l 1,20,-1
 579 635 l 1,21,0
 651 557 651 557 651 406 c 2,1,-1
187 154 m 1,23,-1
 482 600 l 1,24,25
 436 633 436 633 357 633 c 0,26,27
 255 633 255 633 205.5 576.5 c 128,-1,28
 156 520 156 520 156 400 c 2,29,-1
 156 301 l 2,30,22
 155 207 155 207 187 154 c 1,23,-1
559 400 m 2,31,32
 559 498 559 498 525 554 c 1,33,-1
 230 108 l 1,34,35
 276 75 276 75 357 75 c 0,36,37
 458 75 458 75 508.5 130 c 128,-1,38
 559 185 559 185 559 301 c 2,39,-1
 559 400 l 2,31,32
EndSplineSet
Validated: 33
EndChar

StartChar: Thorn
Encoding: 222 222 161
Width: 652
GlyphClass: 2
Flags: W
LayerCount: 2
Fore
SplineSet
558.5 528 m 128,-1,1
 621 474 621 474 621 370 c 0,2,3
 621 268 621 268 559 213.5 c 128,-1,4
 497 159 497 159 378 159 c 2,5,-1
 167 159 l 1,6,-1
 167 0 l 1,7,-1
 74 0 l 1,8,-1
 74 707 l 1,9,-1
 167 707 l 1,10,-1
 167 582 l 1,11,-1
 378 582 l 2,12,0
 496 582 496 582 558.5 528 c 128,-1,1
492 272.5 m 128,-1,14
 528 303 528 303 528 369 c 0,15,16
 528 438 528 438 491.5 468.5 c 128,-1,17
 455 499 455 499 375 499 c 2,18,-1
 167 499 l 1,19,-1
 167 242 l 1,20,-1
 380 242 l 2,21,13
 456 242 456 242 492 272.5 c 128,-1,14
EndSplineSet
Validated: 1
EndChar

StartChar: germandbls
Encoding: 223 223 162
Width: 573
GlyphClass: 2
Flags: W
LayerCount: 2
Fore
SplineSet
284 73 m 1,0,-1
 315 73 l 2,1,2
 363 73 363 73 388.5 87.5 c 128,-1,3
 414 102 414 102 423.5 135.5 c 128,-1,4
 433 169 433 169 433 230 c 0,5,6
 433 292 433 292 423 326 c 128,-1,7
 413 360 413 360 386 375.5 c 128,-1,8
 359 391 359 391 308 391 c 2,9,-1
 283 391 l 1,10,-1
 283 468 l 1,11,-1
 314 468 l 2,12,13
 372 468 372 468 398 488 c 128,-1,14
 424 508 424 508 424 551 c 0,15,16
 424 596 424 596 393 616.5 c 128,-1,17
 362 637 362 637 297 637 c 0,18,19
 222 637 222 637 189 609 c 128,-1,20
 156 581 156 581 156 514 c 2,21,-1
 156 0 l 1,22,-1
 69 0 l 1,23,-1
 69 505 l 2,24,25
 69 610 69 610 123 662.5 c 128,-1,26
 177 715 177 715 294 715 c 0,27,28
 398 715 398 715 454.5 673.5 c 128,-1,29
 511 632 511 632 511 554 c 0,30,31
 511 509 511 509 492.5 480 c 128,-1,32
 474 451 474 451 436 433 c 1,33,34
 484 414 484 414 502 370 c 128,-1,35
 520 326 520 326 520 233 c 0,36,37
 520 143 520 143 502 92.5 c 128,-1,38
 484 42 484 42 441 19 c 128,-1,39
 398 -4 398 -4 321 -4 c 2,40,-1
 284 -4 l 1,41,-1
 284 73 l 1,0,-1
EndSplineSet
Validated: 1
EndChar

StartChar: ae
Encoding: 230 230 169
Width: 922
GlyphClass: 2
Flags: W
LayerCount: 2
Fore
SplineSet
494 241 m 1,0,-1
 494 237 l 2,1,2
 494 67 494 67 652 67 c 0,3,4
 711 67 711 67 744.5 94.5 c 128,-1,5
 778 122 778 122 780 166 c 2,6,-1
 780 169 l 1,7,-1
 866 169 l 1,8,-1
 866 165 l 2,9,10
 865 117 865 117 839.5 77 c 128,-1,11
 814 37 814 37 766 14 c 128,-1,12
 718 -9 718 -9 652 -9 c 0,13,14
 516 -9 516 -9 453 79 c 1,15,16
 393 -7 393 -7 251 -7 c 0,17,18
 153 -7 153 -7 98 35 c 128,-1,19
 43 77 43 77 43 153 c 0,20,21
 43 227 43 227 94 266 c 128,-1,22
 145 305 145 305 244 305 c 2,23,-1
 407 305 l 1,24,-1
 407 340 l 2,25,26
 407 459 407 459 268 459 c 0,27,28
 208 459 208 459 176.5 436.5 c 128,-1,29
 145 414 145 414 145 373 c 2,30,-1
 145 370 l 1,31,-1
 60 370 l 1,32,-1
 60 373 l 2,33,34
 60 447 60 447 115.5 489 c 128,-1,35
 171 531 171 531 267 531 c 0,36,37
 401 531 401 531 459 459 c 1,38,39
 489 496 489 496 534.5 515.5 c 128,-1,40
 580 535 580 535 638 535 c 0,41,42
 747 535 747 535 808 475 c 128,-1,43
 869 415 869 415 869 301 c 2,44,-1
 869 241 l 1,45,-1
 494 241 l 1,0,-1
535 420.5 m 128,-1,47
 498 383 498 383 494 306 c 1,48,-1
 782 306 l 1,49,-1
 782 314 l 2,50,51
 782 387 782 387 745.5 422.5 c 128,-1,52
 709 458 709 458 639 458 c 0,53,46
 572 458 572 458 535 420.5 c 128,-1,47
370 99 m 128,-1,55
 407 133 407 133 407 200 c 2,56,-1
 407 241 l 1,57,-1
 258 241 l 2,58,59
 192 241 192 241 160.5 220 c 128,-1,60
 129 199 129 199 129 154 c 0,61,62
 129 110 129 110 162 87.5 c 128,-1,63
 195 65 195 65 260 65 c 0,64,54
 333 65 333 65 370 99 c 128,-1,55
EndSplineSet
Validated: 1
EndChar

StartChar: ccedilla
Encoding: 231 231 170
Width: 566
GlyphClass: 2
Flags: W
LayerCount: 2
Fore
SplineSet
428 339 m 1,0,-1
 428 344 l 2,1,2
 428 397 428 397 393 427 c 128,-1,3
 358 457 358 457 294 457 c 0,4,5
 140 457 140 457 140 287 c 2,6,-1
 140 239 l 2,7,8
 140 68 140 68 294 68 c 0,9,10
 359 68 359 68 393.5 97.5 c 128,-1,11
 428 127 428 127 428 179 c 2,12,-1
 428 183 l 1,13,-1
 513 183 l 1,14,-1
 513 179 l 2,15,16
 513 104 513 104 469.5 55.5 c 128,-1,17
 426 7 426 7 348 -5 c 1,18,-1
 282 -156 l 1,19,-1
 194 -156 l 1,20,-1
 269 -8 l 1,21,22
 167 -2 167 -2 110 60.5 c 128,-1,23
 53 123 53 123 53 237 c 2,24,-1
 53 289 l 2,25,26
 53 409 53 409 116.5 472 c 128,-1,27
 180 535 180 535 293 535 c 0,28,29
 396 535 396 535 454.5 484 c 128,-1,30
 513 433 513 433 513 344 c 2,31,-1
 513 339 l 1,32,-1
 428 339 l 1,0,-1
EndSplineSet
Validated: 1
EndChar

StartChar: eth
Encoding: 240 240 179
Width: 561
GlyphClass: 2
Flags: W
LayerCount: 2
Fore
SplineSet
487.5 372.5 m 128,-1,1
 508 318 508 318 508 255 c 2,2,-1
 508 225 l 2,3,4
 508 112 508 112 447.5 50.5 c 128,-1,5
 387 -11 387 -11 280 -11 c 0,6,7
 174 -11 174 -11 113.5 50.5 c 128,-1,8
 53 112 53 112 53 223 c 2,9,-1
 53 253 l 2,10,11
 53 361 53 361 110 422 c 128,-1,12
 167 483 167 483 266 483 c 0,13,14
 305 483 305 483 333 471 c 1,15,-1
 259 562 l 1,16,-1
 137 529 l 1,17,-1
 120 593 l 1,18,-1
 213 617 l 1,19,-1
 139 709 l 1,20,-1
 240 709 l 1,21,-1
 296 639 l 1,22,-1
 423 673 l 1,23,-1
 440 610 l 1,24,-1
 341 584 l 1,25,-1
 417 490 l 2,26,0
 467 427 467 427 487.5 372.5 c 128,-1,1
422 253 m 2,27,28
 422 329 422 329 386 368.5 c 128,-1,29
 350 408 350 408 281 408 c 256,30,31
 211 408 211 408 174.5 368.5 c 128,-1,32
 138 329 138 329 138 254 c 2,33,-1
 138 224 l 2,34,35
 138 147 138 147 174.5 107.5 c 128,-1,36
 211 68 211 68 281 68 c 256,37,38
 351 68 351 68 386.5 107.5 c 128,-1,39
 422 147 422 147 422 224 c 2,40,-1
 422 253 l 2,27,28
EndSplineSet
Validated: 1
EndChar

StartChar: divide
Encoding: 247 247 186
Width: 521
GlyphClass: 2
Flags: W
LayerCount: 2
Fore
SplineSet
222 397 m 128,-1,1
 206 413 206 413 206 436 c 0,2,3
 206 459 206 459 222 474.5 c 128,-1,4
 238 490 238 490 260 490 c 0,5,6
 284 490 284 490 299.5 474.5 c 128,-1,7
 315 459 315 459 315 436 c 0,8,9
 315 412 315 412 299.5 396.5 c 128,-1,10
 284 381 284 381 260 381 c 0,11,0
 238 381 238 381 222 397 c 128,-1,1
54 324 m 1,12,-1
 467 324 l 1,13,-1
 467 242 l 1,14,-1
 54 242 l 1,15,-1
 54 324 l 1,12,-1
222 93 m 128,-1,17
 206 109 206 109 206 131 c 0,18,19
 206 155 206 155 222 170.5 c 128,-1,20
 238 186 238 186 260 186 c 0,21,22
 284 186 284 186 299.5 170.5 c 128,-1,23
 315 155 315 155 315 131 c 0,24,25
 315 108 315 108 299.5 92.5 c 128,-1,26
 284 77 284 77 260 77 c 0,27,16
 238 77 238 77 222 93 c 128,-1,17
EndSplineSet
Validated: 1
EndChar

StartChar: oslash
Encoding: 248 248 187
Width: 585
GlyphClass: 2
Flags: W
LayerCount: 2
Fore
SplineSet
532 289 m 2,1,-1
 532 237 l 2,2,3
 532 117 532 117 469 54 c 128,-1,4
 406 -9 406 -9 294 -9 c 0,5,6
 218 -9 218 -9 162 20 c 1,7,-1
 127 -31 l 1,8,-1
 61 -31 l 1,9,-1
 119 52 l 1,10,11
 53 115 53 115 53 237 c 2,12,-1
 53 289 l 2,13,14
 53 409 53 409 117 472 c 128,-1,15
 181 535 181 535 294 535 c 0,16,17
 372 535 372 535 426 504 c 1,18,-1
 459 551 l 1,19,-1
 524 551 l 1,20,-1
 469 471 l 1,21,0
 532 406 532 406 532 289 c 2,1,-1
168 125 m 1,23,-1
 380 436 l 1,24,25
 344 456 344 456 293 457 c 0,26,27
 140 457 140 457 140 287 c 2,28,-1
 140 239 l 2,29,22
 140 167 140 167 168 125 c 1,23,-1
445 287 m 2,30,31
 445 356 445 356 420 397 c 1,32,-1
 208 87 l 1,33,34
 241 68 241 68 293 68 c 0,35,36
 446 68 446 68 445 239 c 2,37,-1
 445 287 l 2,30,31
EndSplineSet
Validated: 33
EndChar

StartChar: thorn
Encoding: 254 254 193
Width: 593
GlyphClass: 2
Flags: W
LayerCount: 2
Fore
SplineSet
69 707 m 1,0,-1
 156 707 l 1,1,-1
 156 454 l 1,2,3
 182 492 182 492 224.5 513.5 c 128,-1,4
 267 535 267 535 322 535 c 0,5,6
 421 535 421 535 481 471.5 c 128,-1,7
 541 408 541 408 541 291 c 2,8,-1
 541 236 l 2,9,10
 541 118 541 118 481 54.5 c 128,-1,11
 421 -9 421 -9 322 -9 c 0,12,13
 266 -9 266 -9 223.5 10.5 c 128,-1,14
 181 30 181 30 155 68 c 1,15,-1
 155 -157 l 1,16,-1
 69 -157 l 1,17,-1
 69 707 l 1,0,-1
416 111 m 128,-1,19
 454 154 454 154 454 240 c 2,20,-1
 454 287 l 2,21,22
 454 373 454 373 416 415 c 128,-1,23
 378 457 378 457 307 457 c 256,24,25
 236 457 236 457 196 413.5 c 128,-1,26
 156 370 156 370 156 296 c 2,27,-1
 156 227 l 2,28,29
 156 154 156 154 197 111 c 128,-1,30
 238 68 238 68 309 68 c 0,31,18
 378 68 378 68 416 111 c 128,-1,19
EndSplineSet
Validated: 1
EndChar

StartChar: dotlessi
Encoding: 305 305 195
Width: 239
GlyphClass: 2
Flags: W
LayerCount: 2
Fore
SplineSet
76 524 m 1,0,-1
 163 524 l 1,1,-1
 163 0 l 1,2,-1
 76 0 l 1,3,-1
 76 524 l 1,0,-1
EndSplineSet
Validated: 1
EndChar

StartChar: OE
Encoding: 338 338 196
Width: 1085
GlyphClass: 2
Flags: W
LayerCount: 2
Fore
SplineSet
651 624 m 1,0,-1
 651 400 l 1,1,-1
 984 400 l 1,2,-1
 984 317 l 1,3,-1
 651 317 l 1,4,-1
 651 83 l 1,5,-1
 1040 83 l 1,6,-1
 1040 0 l 1,7,-1
 561 0 l 1,8,-1
 561 61 l 1,9,10
 484 -10 484 -10 353 -9 c 0,11,12
 213 -9 213 -9 137.5 69 c 128,-1,13
 62 147 62 147 62 302 c 2,14,-1
 62 406 l 2,15,16
 62 561 62 561 138.5 639 c 128,-1,17
 215 717 215 717 355 717 c 0,18,19
 485 717 485 717 561 647 c 1,20,-1
 561 707 l 1,21,-1
 1040 707 l 1,22,-1
 1040 624 l 1,23,-1
 651 624 l 1,0,-1
559 400 m 2,24,25
 559 520 559 520 509 576.5 c 128,-1,26
 459 633 459 633 357 633 c 0,27,28
 255 633 255 633 205.5 576.5 c 128,-1,29
 156 520 156 520 156 400 c 2,30,-1
 156 301 l 2,31,32
 156 185 156 185 205.5 130 c 128,-1,33
 255 75 255 75 357 75 c 0,34,35
 458 75 458 75 508.5 130 c 128,-1,36
 559 185 559 185 559 301 c 2,37,-1
 559 400 l 2,24,25
EndSplineSet
Validated: 33
EndChar

StartChar: oe
Encoding: 339 339 197
Width: 961
GlyphClass: 2
Flags: W
LayerCount: 2
Fore
SplineSet
532 241 m 1,0,-1
 532 237 l 2,1,2
 532 67 532 67 691 67 c 0,3,4
 750 67 750 67 783.5 95 c 128,-1,5
 817 123 817 123 819 166 c 2,6,-1
 819 169 l 1,7,-1
 905 169 l 1,8,-1
 905 165 l 2,9,10
 904 116 904 116 878 76.5 c 128,-1,11
 852 37 852 37 803.5 14 c 128,-1,12
 755 -9 755 -9 689 -9 c 0,13,14
 553 -9 553 -9 489 79 c 1,15,16
 458 35 458 35 408.5 13 c 128,-1,17
 359 -9 359 -9 294 -9 c 0,18,19
 181 -9 181 -9 117 54 c 128,-1,20
 53 117 53 117 53 237 c 2,21,-1
 53 289 l 2,22,23
 53 409 53 409 117 472 c 128,-1,24
 181 535 181 535 294 535 c 0,25,26
 359 535 359 535 408.5 512.5 c 128,-1,27
 458 490 458 490 488 447 c 1,28,29
 518 490 518 490 566 512.5 c 128,-1,30
 614 535 614 535 677 535 c 0,31,32
 786 535 786 535 847 475 c 128,-1,33
 908 415 908 415 908 302 c 2,34,-1
 908 241 l 1,35,-1
 532 241 l 1,0,-1
574 420.5 m 128,-1,37
 537 383 537 383 532 306 c 1,38,-1
 821 306 l 1,39,-1
 821 315 l 2,40,41
 821 387 821 387 783.5 422.5 c 128,-1,42
 746 458 746 458 678 458 c 0,43,36
 611 458 611 458 574 420.5 c 128,-1,37
445 287 m 2,44,45
 445 457 445 457 293 457 c 256,46,47
 140 457 140 457 140 287 c 2,48,-1
 140 239 l 2,49,50
 140 68 140 68 293 68 c 256,51,52
 446 68 446 68 445 239 c 2,53,-1
 445 287 l 2,44,45
EndSplineSet
Validated: 33
EndChar

StartChar: florin
Encoding: 402 402 203
Width: 479
GlyphClass: 2
Flags: W
LayerCount: 2
Fore
SplineSet
12 -74 m 1,0,-1
 58 -74 l 2,1,2
 105 -74 105 -74 126 -55 c 128,-1,3
 147 -36 147 -36 155 17 c 2,4,-1
 203 345 l 1,5,-1
 97 345 l 1,6,-1
 97 424 l 1,7,-1
 215 424 l 1,8,-1
 232 538 l 2,9,10
 246 630 246 630 287 668.5 c 128,-1,11
 328 707 328 707 412 707 c 2,12,-1
 468 707 l 1,13,-1
 468 625 l 1,14,-1
 416 625 l 2,15,16
 371 625 371 625 350 605.5 c 128,-1,17
 329 586 329 586 321 535 c 2,18,-1
 304 424 l 1,19,-1
 431 424 l 1,20,-1
 431 345 l 1,21,-1
 292 345 l 1,22,-1
 243 14 l 2,23,24
 229 -80 229 -80 188 -118.5 c 128,-1,25
 147 -157 147 -157 63 -157 c 2,26,-1
 12 -157 l 1,27,-1
 12 -74 l 1,0,-1
EndSplineSet
Validated: 1
EndChar

StartChar: circumflex
Encoding: 710 710 204
Width: 512
GlyphClass: 2
Flags: W
LayerCount: 2
Fore
SplineSet
222 730 m 1,0,-1
 289 730 l 1,1,-1
 423 581 l 1,2,-1
 341 581 l 1,3,-1
 256 673 l 1,4,-1
 170 581 l 1,5,-1
 88 581 l 1,6,-1
 222 730 l 1,0,-1
EndSplineSet
Validated: 1
EndChar

StartChar: caron
Encoding: 711 711 205
Width: 512
GlyphClass: 2
Flags: W
LayerCount: 2
Fore
SplineSet
88 729 m 1,0,-1
 170 729 l 1,1,-1
 256 637 l 1,2,-1
 341 729 l 1,3,-1
 423 729 l 1,4,-1
 289 580 l 1,5,-1
 222 580 l 1,6,-1
 88 729 l 1,0,-1
EndSplineSet
Validated: 1
EndChar

StartChar: dotaccent
Encoding: 729 729 206
Width: 512
GlyphClass: 2
Flags: W
LayerCount: 2
Fore
SplineSet
212 701 m 1,0,-1
 300 701 l 1,1,-1
 300 606 l 1,2,-1
 212 606 l 1,3,-1
 212 701 l 1,0,-1
EndSplineSet
Validated: 1
EndChar

StartChar: ring
Encoding: 730 730 207
Width: 512
GlyphClass: 2
Flags: W
LayerCount: 2
Fore
SplineSet
186.5 605.5 m 128,-1,1
 159 633 159 633 159 674 c 0,2,3
 159 716 159 716 186.5 744 c 128,-1,4
 214 772 214 772 256 772 c 0,5,6
 297 772 297 772 324.5 744 c 128,-1,7
 352 716 352 716 352 674 c 0,8,9
 352 633 352 633 324.5 605.5 c 128,-1,10
 297 578 297 578 256 578 c 0,11,0
 214 578 214 578 186.5 605.5 c 128,-1,1
292.5 636.5 m 128,-1,13
 307 651 307 651 307 674 c 256,14,15
 307 697 307 697 292.5 712.5 c 128,-1,16
 278 728 278 728 256 728 c 0,17,18
 233 728 233 728 218.5 712.5 c 128,-1,19
 204 697 204 697 204 674 c 0,20,21
 204 651 204 651 218.5 636.5 c 128,-1,22
 233 622 233 622 256 622 c 0,23,12
 278 622 278 622 292.5 636.5 c 128,-1,13
EndSplineSet
Validated: 1
EndChar

StartChar: tilde
Encoding: 732 732 208
Width: 512
GlyphClass: 2
Flags: W
LayerCount: 2
Fore
SplineSet
105 662 m 1,0,1
 125 681 125 681 145 690 c 128,-1,2
 165 699 165 699 189 699 c 0,3,4
 209 699 209 699 225.5 694 c 128,-1,5
 242 689 242 689 262 679 c 0,6,7
 281 670 281 670 295 665 c 128,-1,8
 309 660 309 660 327 660 c 0,9,10
 351 660 351 660 367.5 669.5 c 128,-1,11
 384 679 384 679 406 699 c 1,12,-1
 406 626 l 1,13,14
 371 589 371 589 322 589 c 0,15,16
 300 589 300 589 284 594 c 128,-1,17
 268 599 268 599 248 609 c 0,18,19
 228 618 228 618 215 623 c 128,-1,20
 202 628 202 628 184 628 c 0,21,22
 161 628 161 628 144.5 618.5 c 128,-1,23
 128 609 128 609 105 589 c 1,24,-1
 105 662 l 1,0,1
EndSplineSet
Validated: 1
EndChar

StartChar: gravecomb
Encoding: 768 768 209
Width: 0
GlyphClass: 2
Flags: W
LayerCount: 2
Fore
SplineSet
-157 717 m 1,0,-1
 -46 717 l 1,1,-1
 68 586 l 1,2,-1
 -14 586 l 1,3,-1
 -157 717 l 1,0,-1
EndSplineSet
Validated: 1
EndChar

StartChar: acutecomb
Encoding: 769 769 210
Width: 0
GlyphClass: 2
Flags: W
LayerCount: 2
Fore
SplineSet
34 717 m 1,0,-1
 143 717 l 1,1,-1
 1 586 l 1,2,-1
 -81 586 l 1,3,-1
 34 717 l 1,0,-1
EndSplineSet
Validated: 1
EndChar

StartChar: uni0302
Encoding: 770 770 211
Width: 0
GlyphClass: 2
Flags: W
LayerCount: 2
Fore
SplineSet
-34 730 m 1,0,-1
 33 730 l 1,1,-1
 167 581 l 1,2,-1
 85 581 l 1,3,-1
 0 673 l 1,4,-1
 -86 581 l 1,5,-1
 -168 581 l 1,6,-1
 -34 730 l 1,0,-1
EndSplineSet
Validated: 1
EndChar

StartChar: tildecomb
Encoding: 771 771 212
Width: 0
GlyphClass: 2
Flags: W
LayerCount: 2
Fore
SplineSet
-151 656 m 1,0,1
 -131 675 -131 675 -111 684.5 c 128,-1,2
 -91 694 -91 694 -67 694 c 0,3,4
 -47 694 -47 694 -30.5 689 c 128,-1,5
 -14 684 -14 684 6 674 c 0,6,7
 25 665 25 665 39 660 c 128,-1,8
 53 655 53 655 71 655 c 0,9,10
 95 655 95 655 111.5 664.5 c 128,-1,11
 128 674 128 674 150 694 c 1,12,-1
 150 621 l 1,13,14
 114 584 114 584 66 584 c 0,15,16
 44 584 44 584 28 589 c 128,-1,17
 12 594 12 594 -8 604 c 0,18,19
 -28 613 -28 613 -41 618 c 128,-1,20
 -54 623 -54 623 -72 623 c 0,21,22
 -95 623 -95 623 -111.5 613.5 c 128,-1,23
 -128 604 -128 604 -151 584 c 1,24,-1
 -151 656 l 1,0,1
EndSplineSet
Validated: 1
EndChar

StartChar: uni0308
Encoding: 776 776 213
Width: 0
GlyphClass: 2
Flags: W
LayerCount: 2
Fore
SplineSet
-154 692 m 1,0,-1
 -67 692 l 1,1,-1
 -67 595 l 1,2,-1
 -154 595 l 1,3,-1
 -154 692 l 1,0,-1
67 692 m 1,4,-1
 153 692 l 1,5,-1
 153 595 l 1,6,-1
 67 595 l 1,7,-1
 67 692 l 1,4,-1
EndSplineSet
Validated: 1
EndChar

StartChar: uni030A
Encoding: 778 778 214
Width: 0
GlyphClass: 2
Flags: W
LayerCount: 2
Fore
SplineSet
-69 608 m 128,-1,1
 -96 635 -96 635 -96 677 c 256,2,3
 -96 719 -96 719 -69 746.5 c 128,-1,4
 -42 774 -42 774 0 774 c 0,5,6
 41 774 41 774 68.5 746.5 c 128,-1,7
 96 719 96 719 96 677 c 0,8,9
 96 636 96 636 69 608.5 c 128,-1,10
 42 581 42 581 0 581 c 256,11,0
 -42 581 -42 581 -69 608 c 128,-1,1
37 639 m 128,-1,13
 51 654 51 654 51 677 c 0,14,15
 51 701 51 701 37 715.5 c 128,-1,16
 23 730 23 730 0 730 c 256,17,18
 -23 730 -23 730 -37 715 c 128,-1,19
 -51 700 -51 700 -51 677 c 0,20,21
 -51 654 -51 654 -37 639 c 128,-1,22
 -23 624 -23 624 0 624 c 256,23,12
 23 624 23 624 37 639 c 128,-1,13
EndSplineSet
Validated: 1
EndChar

StartChar: endash
Encoding: 8211 8211 215
Width: 493
GlyphClass: 2
Flags: W
LayerCount: 2
Fore
SplineSet
0 396 m 1,0,-1
 494 396 l 1,1,-1
 494 313 l 1,2,-1
 0 313 l 1,3,-1
 0 396 l 1,0,-1
EndSplineSet
Validated: 1
EndChar

StartChar: emdash
Encoding: 8212 8212 216
Width: 986
GlyphClass: 2
Flags: W
LayerCount: 2
Fore
SplineSet
0 396 m 1,0,-1
 986 396 l 1,1,-1
 986 313 l 1,2,-1
 0 313 l 1,3,-1
 0 396 l 1,0,-1
EndSplineSet
Validated: 1
EndChar

StartChar: quoteleft
Encoding: 8216 8216 217
Width: 181
GlyphClass: 2
Flags: W
LayerCount: 2
Fore
SplineSet
49 670 m 1,0,-1
 132 744 l 1,1,-1
 132 487 l 1,2,-1
 49 487 l 1,3,-1
 49 670 l 1,0,-1
EndSplineSet
Validated: 1
EndChar

StartChar: quoteright
Encoding: 8217 8217 218
Width: 181
GlyphClass: 2
Flags: W
LayerCount: 2
Fore
SplineSet
49 707 m 1,0,-1
 132 707 l 1,1,-1
 132 524 l 1,2,-1
 49 450 l 1,3,-1
 49 707 l 1,0,-1
EndSplineSet
Validated: 1
EndChar

StartChar: quotedblleft
Encoding: 8220 8220 220
Width: 346
GlyphClass: 2
Flags: W
LayerCount: 2
Fore
SplineSet
48 670 m 1,0,-1
 132 744 l 1,1,-1
 132 487 l 1,2,-1
 48 487 l 1,3,-1
 48 670 l 1,0,-1
213 670 m 1,4,-1
 297 744 l 1,5,-1
 297 487 l 1,6,-1
 213 487 l 1,7,-1
 213 670 l 1,4,-1
EndSplineSet
Validated: 1
EndChar

StartChar: quotedblright
Encoding: 8221 8221 221
Width: 346
GlyphClass: 2
Flags: W
LayerCount: 2
Fore
SplineSet
49 708 m 1,0,-1
 132 708 l 1,1,-1
 132 524 l 1,2,-1
 49 450 l 1,3,-1
 49 708 l 1,0,-1
214 708 m 1,4,-1
 298 708 l 1,5,-1
 298 524 l 1,6,-1
 214 450 l 1,7,-1
 214 708 l 1,4,-1
EndSplineSet
Validated: 1
EndChar

StartChar: dagger
Encoding: 8224 8224 223
Width: 600
GlyphClass: 2
Flags: W
LayerCount: 2
Fore
SplineSet
531 384 m 1,0,-1
 347 384 l 1,1,-1
 347 -157 l 1,2,-1
 254 -157 l 1,3,-1
 254 384 l 1,4,-1
 69 384 l 1,5,-1
 69 467 l 1,6,-1
 254 467 l 1,7,-1
 254 707 l 1,8,-1
 347 707 l 1,9,-1
 347 467 l 1,10,-1
 531 467 l 1,11,-1
 531 384 l 1,0,-1
EndSplineSet
Validated: 1
EndChar

StartChar: daggerdbl
Encoding: 8225 8225 224
Width: 600
GlyphClass: 2
Flags: W
LayerCount: 2
Fore
SplineSet
347 388 m 1,0,-1
 347 165 l 1,1,-1
 531 165 l 1,2,-1
 531 82 l 1,3,-1
 347 82 l 1,4,-1
 347 -157 l 1,5,-1
 254 -157 l 1,6,-1
 254 82 l 1,7,-1
 69 82 l 1,8,-1
 69 165 l 1,9,-1
 254 165 l 1,10,-1
 254 388 l 1,11,-1
 69 388 l 1,12,-1
 69 471 l 1,13,-1
 254 471 l 1,14,-1
 254 707 l 1,15,-1
 347 707 l 1,16,-1
 347 471 l 1,17,-1
 531 471 l 1,18,-1
 531 388 l 1,19,-1
 347 388 l 1,0,-1
EndSplineSet
Validated: 1
EndChar

StartChar: bullet
Encoding: 8226 8226 225
Width: 472
GlyphClass: 2
Flags: W
LayerCount: 2
Fore
SplineSet
140.5 220.5 m 128,-1,1
 103 258 103 258 103 315 c 256,2,3
 103 372 103 372 140.5 409.5 c 128,-1,4
 178 447 178 447 236 447 c 256,5,6
 293 447 293 447 331 410 c 128,-1,7
 369 373 369 373 369 315 c 256,8,9
 369 258 369 258 331 220.5 c 128,-1,10
 293 183 293 183 236 183 c 256,11,0
 178 183 178 183 140.5 220.5 c 128,-1,1
EndSplineSet
Validated: 1
EndChar

StartChar: perthousand
Encoding: 8240 8240 227
Width: 1314
GlyphClass: 2
Flags: W
LayerCount: 2
Fore
SplineSet
79.5 314.5 m 128,-1,1
 43 357 43 357 43 440 c 2,2,-1
 43 551 l 2,3,4
 43 631 43 631 80.5 672.5 c 128,-1,5
 118 714 118 714 189 714 c 0,6,7
 335 714 335 714 336 551 c 2,8,-1
 336 440 l 2,9,10
 336 357 336 357 299 314.5 c 128,-1,11
 262 272 262 272 188 272 c 0,12,0
 116 272 116 272 79.5 314.5 c 128,-1,1
624 709 m 1,13,-1
 699 709 l 1,14,-1
 309 0 l 1,15,-1
 234 0 l 1,16,-1
 624 709 l 1,13,-1
240.5 365.5 m 128,-1,18
 256 390 256 390 256 445 c 2,19,-1
 256 543 l 2,20,21
 256 596 256 596 240.5 620.5 c 128,-1,22
 225 645 225 645 189 645 c 256,23,24
 153 645 153 645 137.5 620.5 c 128,-1,25
 122 596 122 596 122 543 c 2,26,-1
 122 445 l 2,27,28
 122 390 122 390 138 365.5 c 128,-1,29
 154 341 154 341 189 341 c 256,30,17
 225 341 225 341 240.5 365.5 c 128,-1,18
603 162 m 2,32,-1
 603 271 l 2,33,34
 603 352 603 352 640 393 c 128,-1,35
 677 434 677 434 750 434 c 0,36,37
 896 434 896 434 896 271 c 2,38,-1
 896 162 l 2,39,40
 896 -6 896 -6 749 -6 c 0,41,31
 603 -6 603 -6 603 162 c 2,32,-1
979 162 m 2,43,-1
 979 271 l 2,44,45
 979 352 979 352 1016 393 c 128,-1,46
 1053 434 1053 434 1125 434 c 0,47,48
 1271 434 1271 434 1272 271 c 2,49,-1
 1272 162 l 2,50,51
 1272 -6 1272 -6 1124 -6 c 0,52,42
 979 -6 979 -6 979 162 c 2,43,-1
800.5 87 m 128,-1,54
 816 112 816 112 816 166 c 2,55,-1
 816 263 l 2,56,57
 816 317 816 317 800.5 341.5 c 128,-1,58
 785 366 785 366 750 366 c 256,59,60
 714 366 714 366 698 341.5 c 128,-1,61
 682 317 682 317 682 263 c 2,62,-1
 682 166 l 2,63,64
 682 112 682 112 698 87 c 128,-1,65
 714 62 714 62 750 62 c 256,66,53
 785 62 785 62 800.5 87 c 128,-1,54
1176.5 87 m 128,-1,68
 1192 112 1192 112 1192 166 c 2,69,-1
 1192 263 l 2,70,71
 1192 317 1192 317 1176.5 341.5 c 128,-1,72
 1161 366 1161 366 1125 366 c 256,73,74
 1089 366 1089 366 1073.5 341.5 c 128,-1,75
 1058 317 1058 317 1058 263 c 2,76,-1
 1058 166 l 2,77,78
 1058 112 1058 112 1074 87 c 128,-1,79
 1090 62 1090 62 1125 62 c 256,80,67
 1161 62 1161 62 1176.5 87 c 128,-1,68
EndSplineSet
Validated: 1
EndChar

StartChar: guilsinglleft
Encoding: 8249 8249 228
Width: 330
GlyphClass: 2
Flags: W
LayerCount: 2
Fore
SplineSet
24 270 m 1,0,-1
 262 480 l 1,1,-1
 262 387 l 1,2,-1
 127 270 l 1,3,-1
 262 154 l 1,4,-1
 262 60 l 1,5,-1
 24 270 l 1,0,-1
EndSplineSet
Validated: 1
Substitution2: "'rtla' Right to Left Alternates lookup 0 subtable" guilsinglright
EndChar

StartChar: guilsinglright
Encoding: 8250 8250 229
Width: 343
GlyphClass: 2
Flags: W
LayerCount: 2
Fore
SplineSet
69 154 m 1,0,-1
 204 270 l 1,1,-1
 69 387 l 1,2,-1
 69 480 l 1,3,-1
 308 270 l 1,4,-1
 69 60 l 1,5,-1
 69 154 l 1,0,-1
EndSplineSet
Validated: 1
Substitution2: "'rtla' Right to Left Alternates lookup 0 subtable" guilsinglleft
EndChar

StartChar: Euro
Encoding: 8364 8364 230
Width: 620
GlyphClass: 2
Flags: W
LayerCount: 2
Fore
SplineSet
164.5 55 m 128,-1,1
 103 120 103 120 103 236 c 2,2,-1
 103 257 l 1,3,-1
 35 257 l 1,4,-1
 35 323 l 1,5,-1
 103 323 l 1,6,-1
 103 389 l 1,7,-1
 35 389 l 1,8,-1
 35 455 l 1,9,-1
 103 455 l 1,10,-1
 103 478 l 2,11,12
 103 590 103 590 164.5 653.5 c 128,-1,13
 226 717 226 717 340 717 c 0,14,15
 435 717 435 717 493.5 671 c 128,-1,16
 552 625 552 625 556 542 c 1,17,-1
 473 542 l 1,18,19
 458 636 458 636 341 636 c 0,20,21
 195 636 195 636 195 479 c 2,22,-1
 195 455 l 1,23,-1
 444 455 l 1,24,-1
 431 389 l 1,25,-1
 195 389 l 1,26,-1
 195 323 l 1,27,-1
 417 323 l 1,28,-1
 403 257 l 1,29,-1
 195 257 l 1,30,-1
 195 233 l 2,31,32
 195 70 195 70 343 71 c 0,33,34
 401 71 401 71 434 95 c 128,-1,35
 467 119 467 119 474 165 c 1,36,-1
 560 165 l 1,37,38
 554 82 554 82 495 36 c 128,-1,39
 436 -10 436 -10 341 -10 c 0,40,0
 226 -10 226 -10 164.5 55 c 128,-1,1
EndSplineSet
Validated: 33
EndChar

StartChar: trademark
Encoding: 8482 8482 231
Width: 923
GlyphClass: 2
Flags: W
LayerCount: 2
Fore
SplineSet
172 644 m 1,0,-1
 37 644 l 1,1,-1
 37 707 l 1,2,-1
 378 707 l 1,3,-1
 378 644 l 1,4,-1
 243 644 l 1,5,-1
 243 303 l 1,6,-1
 172 303 l 1,7,-1
 172 644 l 1,0,-1
443 707 m 1,8,-1
 508 707 l 1,9,-1
 646 446 l 1,10,-1
 650 446 l 1,11,-1
 784 707 l 1,12,-1
 849 707 l 1,13,-1
 849 303 l 1,14,-1
 783 303 l 1,15,-1
 783 566 l 1,16,-1
 780 566 l 1,17,-1
 672 362 l 1,18,-1
 623 362 l 1,19,-1
 512 566 l 1,20,-1
 509 566 l 1,21,-1
 509 303 l 1,22,-1
 443 303 l 1,23,-1
 443 707 l 1,8,-1
EndSplineSet
Validated: 1
EndChar

